<?xml version="1.0" encoding="utf-8"?>
<!-- Generator: Adobe Illustrator 27.4.0, SVG Export Plug-In . SVG Version: 6.00 Build 0)  -->
<svg version="1.1" id="Layer_1" xmlns="http://www.w3.org/2000/svg" xmlns:xlink="http://www.w3.org/1999/xlink" x="0px" y="0px"
	 viewBox="0 0 294.5 238.6" style="enable-background:new 0 0 294.5 238.6;" xml:space="preserve">
<style type="text/css">
	.st0{fill:#FFFFFF;}
	.st1{fill:#CFD2D3;}
</style>
<g>
	<rect x="91.4" y="50.4" class="st0" width="111.7" height="128.9"/>
	<g>
		<polygon class="st1" points="92.1,90.5 92.1,178.5 168.4,90.5 		"/>
	</g>
	<g>
		<polygon class="st1" points="147.2,178.5 202.6,178.5 202.6,114.5 		"/>
	</g>
	<g>
		<g>
			<path d="M106.3,77.5h-2.8V63.9h4.4c3.2,0,4.8,2.3,4.8,4.6c0,2.3-1.6,4.5-4.8,4.5h-1.6V77.5z M109.9,68.5c0-0.9-0.7-2.2-2-2.2
				h-1.6v4.2h1.6C109.2,70.6,109.9,69.4,109.9,68.5z"/>
		</g>
		<g>
			<path d="M127.6,73.9h-4.7l-1.1,3.6h-3l4.6-13.7h3.6l4.7,13.7h-3L127.6,73.9z M125.2,65.8l-0.7,3l-0.8,2.4h3l-0.7-2.4L125.2,65.8
				L125.2,65.8z"/>
		</g>
		<g>
			<path d="M148.5,67.7c-1.1-1.1-2.4-1.6-3.5-1.6c-2.7,0.1-4.2,2.2-4.2,4.6c0,2.4,1.5,4.5,4.2,4.5c1.2,0,2.6-0.5,3.7-1.8l1.9,1.5
				c-1.6,2-3.4,2.9-5.6,2.9c-4.5,0-6.9-3.4-6.9-7.1c0-3.6,2.4-7.2,6.9-7.2c2,0,3.8,0.7,5.3,2.5L148.5,67.7z"/>
		</g>
		<g>
			<path d="M161.2,63.9v5.3l4.6-5.3h3.4l-5.2,6.3l5.3,7.4h-3.3l-4-5.4l-0.8,0.8v4.7h-2.8V63.9H161.2z"/>
		</g>
	</g>
	<path d="M91.4,50.4v128.9h111.7V50.4H91.4z M201.6,53.1v61.2l-54.5,63.4l0.1,0.1h-53L201.6,53.1z M92.9,177V91.2h73.9L92.9,177z
		 M200.8,51.8l-32.7,37.9H92.9V51.8H200.8z M149,177.8l52.6-61.2v61.2H149z"/>
</g>
</svg>
