<?xml version="1.0" encoding="UTF-8"?>
<svg id="Layer_1" data-name="Layer 1" xmlns="http://www.w3.org/2000/svg" viewBox="0 0 142.05 37.21">
  <defs>
    <style>
      .cls-1 {
        fill: #008afd;
      }
    </style>
  </defs>
  <g>
    <path d="m37.42,23.94c1.38,0,2.31.49,2.97.98.37.29.68.62.96.98h.12v-1.58h3.44v12.53h-3.44v-1.59h-.12c-.27.37-.59.68-.96.98-.66.49-1.59.98-2.97.98-3.19,0-5.77-2.58-5.77-6.63s2.58-6.62,5.77-6.62Zm.86,10.31c1.87,0,3.19-1.33,3.19-3.68s-1.33-3.68-3.19-3.68c-1.75,0-3.07,1.33-3.07,3.68s1.32,3.68,3.07,3.68Z"/>
    <path d="m47.68,24.31h3.44v1.72h.12c.22-.39.49-.74.84-1.03.59-.51,1.47-1.05,2.85-1.05,1.59,0,2.63.59,3.29,1.18.37.34.66.74.88,1.16h.12c.22-.42.51-.81.88-1.16.66-.59,1.59-1.18,3.17-1.18,2.97,0,4.78,1.81,4.78,5.28v7.62h-3.44v-7.24c0-1.87-.86-2.7-2.33-2.7s-2.7,1.22-2.7,3.19v6.76h-3.44v-7.24c0-1.87-.86-2.7-2.33-2.7s-2.7,1.22-2.7,3.19v6.76h-3.43v-12.53Z"/>
    <path d="m75.79,23.94c1.38,0,2.31.49,2.97.98.37.29.68.62.96.98h.12v-1.58h3.44v12.53h-3.44v-1.59h-.12c-.27.37-.59.68-.96.98-.66.49-1.59.98-2.97.98-3.19,0-5.77-2.58-5.77-6.63s2.57-6.62,5.77-6.62Zm.85,10.31c1.87,0,3.19-1.33,3.19-3.68s-1.33-3.68-3.19-3.68c-1.75,0-3.07,1.33-3.07,3.68s1.33,3.68,3.07,3.68Z"/>
    <path d="m90.99,23.94c1.38,0,2.31.49,2.97.98.37.29.68.62.96.98h.12v-6.26h3.44v17.2h-3.44v-1.59h-.12c-.27.37-.59.68-.96.98-.66.49-1.59.98-2.97.98-3.19,0-5.77-2.58-5.77-6.63s2.57-6.62,5.77-6.62Zm.85,10.31c1.87,0,3.19-1.33,3.19-3.68s-1.33-3.68-3.19-3.68c-1.75,0-3.07,1.33-3.07,3.68s1.33,3.68,3.07,3.68Z"/>
    <path d="m107.19,23.94c3.93,0,6.63,2.97,6.63,6.63v.74h-9.82c.27,1.59,1.59,2.94,3.19,2.94,1.1,0,1.77-.37,2.23-.74.25-.22.45-.46.59-.74h3.68c-.27.81-.66,1.55-1.22,2.21-.98,1.1-2.58,2.21-5.28,2.21-3.83,0-6.75-2.94-6.75-6.63s2.91-6.62,6.75-6.62Zm2.95,5.29c-.25-1.22-1.35-2.33-2.94-2.33s-2.7,1.08-3.07,2.33h6.01Z"/>
    <path d="m115.9,24.31h3.44v7.12c0,1.87.98,2.83,2.58,2.83s2.94-1.35,2.94-3.31v-6.63h3.44v12.53h-3.44v-1.72h-.12c-.22.42-.54.76-.91,1.05-.66.51-1.62,1.03-3.02,1.03-3.07,0-4.91-1.81-4.91-5.28v-7.62h0Z"/>
    <path d="m133.7,32.79c.12.32.32.59.54.81.39.39,1.05.79,2.16.79,1.59,0,2.09-.46,2.09-1.22,0-.91-1.96-1.18-3.85-1.59-1.94-.42-3.88-1.42-3.88-3.81,0-1.96,1.84-3.81,5.28-3.81,2.63,0,4.13,1.03,4.93,2.04.46.59.79,1.25.96,2.01h-3.44c-.09-.22-.25-.45-.45-.62-.37-.29-.96-.62-2.01-.62-1.25,0-1.72.49-1.72.98,0,.91,1.94,1.18,3.88,1.59,1.89.42,3.85,1.42,3.85,3.81,0,2.06-1.99,4.05-5.65,4.05-2.68,0-4.3-1.08-5.15-2.21-.51-.66-.88-1.39-1.1-2.21h3.55Z"/>
  </g>
  <path class="cls-1" d="m14.24,32.25c-5.38,0-10.44-2.1-14.24-5.9l2.43-2.43c3.16,3.16,7.35,4.9,11.81,4.9s8.65-1.74,11.81-4.9l2.43,2.43c-3.81,3.81-8.86,5.9-14.24,5.9Z"/>
  <g>
    <path d="m.02.62h3.44v6.26h.12c.27-.37.59-.68.96-.98.66-.49,1.59-.98,2.97-.98,3.19,0,5.77,2.58,5.77,6.63s-2.58,6.63-5.77,6.63c-1.38,0-2.31-.49-2.97-.98-.37-.29-.68-.62-.96-.98h-.12v1.59H.02V.62Zm6.62,14.6c1.75,0,3.07-1.33,3.07-3.68s-1.33-3.68-3.07-3.68c-1.87,0-3.19,1.33-3.19,3.68s1.33,3.68,3.19,3.68Z"/>
    <path d="m21.01,4.91c1.38,0,2.31.49,2.97.98.37.29.68.62.96.98h.12v-1.59h3.44v12.52h-3.44v-1.59h-.12c-.27.37-.59.68-.96.98-.66.49-1.59.98-2.97.98-3.19,0-5.77-2.58-5.77-6.63s2.57-6.6,5.77-6.6Zm.85,10.31c1.87,0,3.19-1.33,3.19-3.68s-1.33-3.68-3.19-3.68c-1.75,0-3.07,1.33-3.07,3.68s1.33,3.68,3.07,3.68Z"/>
    <path d="m31.19.62h3.44v17.19h-3.44V.62Z"/>
    <path d="m36.49,5.28h1.59v-2.68h3.44v2.68h3.39v2.94h-3.39v5.15c0,.98.49,1.47,1.47,1.47h1.92v2.94h-2.52c-2.72,0-4.3-1.58-4.3-4.42v-5.15h-1.59v-2.93Z"/>
    <path d="m49.14,0c1.1,0,1.96.86,1.96,1.84s-.86,1.84-1.96,1.84-1.96-.86-1.96-1.84.85-1.84,1.96-1.84Z"/>
    <path d="m59.44,4.91c2.68,0,4.3,1.21,5.2,2.46.54.71.93,1.55,1.18,2.46h-3.56c-.15-.37-.34-.68-.59-.98-.46-.49-1.13-.98-2.23-.98-1.7,0-3.19,1.47-3.19,3.68s1.5,3.68,3.19,3.68c1.1,0,1.77-.49,2.23-.98.25-.29.45-.62.59-.98h3.56c-.22.91-.59,1.75-1.13,2.46-.91,1.25-2.51,2.46-5.26,2.46-3.83,0-6.75-2.94-6.75-6.63s2.93-6.65,6.76-6.65Z"/>
    <rect x="47.42" y="5.28" width="3.44" height="12.52"/>
  </g>
</svg>