<?xml version="1.0" encoding="UTF-8"?>
<svg id="Layer_1" data-name="Layer 1" xmlns="http://www.w3.org/2000/svg" viewBox="0 0 320.2 148.6">
  <defs>
    <style>
      .cls-1 {
        fill: #00aa14;
      }

      .cls-2 {
        fill: #fff;
      }
    </style>
  </defs>
  <path class="cls-1" d="m111.5,0H37.1C16.7,0,0,16.7,0,37.1v111.5h111.5c20.4,0,37.1-16.7,37.1-37.1V37.1c.1-20.4-16.7-37.1-37.1-37.1Zm185.8,59.2c3,0,5.4-2.4,5.4-5.4s-2.4-5.4-5.4-5.4-5.4,2.4-5.4,5.4,2.4,5.4,5.4,5.4Zm-36.8-10.4h-9.8v16.5h-7.4v9.5h7.4v17.6c0,10.8,7.5,18.9,18.2,19.4h1.5v-9.7c-.7,0-1.3-.1-1.3-.1-5.2-.5-8.6-4.3-8.6-9.7v-17.6h9.9v-9.4h-9.9v-16.5h0Zm-32.6,62h9.9v-45.5h-9.9v45.5Zm5-62.5c-3,0-5.4,2.4-5.4,5.4s2.4,5.4,5.4,5.4,5.4-2.4,5.4-5.4-2.5-5.4-5.4-5.4Zm87.3,41.6c0-7.6-2.5-14.3-7.3-19.1-4.2-4.3-9.8-6.6-15.7-6.6-12.6,0-22.9,10.7-22.9,23.9s10.2,23.7,23.3,23.7c10.5,0,18.3-5.6,21.5-15.2h-10.7c-2.2,3.9-5.9,6-10.8,6-5.6,0-12.2-3.9-13.1-11.3h35.7v-1.4Zm-34.9-7.7c2.2-5.8,7.5-8.8,12-8.8,5.2,0,9.8,3.5,11.8,8.8h-23.8Zm-87.3-16.9h-13.3v-24.5h-9.9v47.7c0,12.8,10.4,23.2,23.2,23.2s23.2-10.4,23.2-23.2c.1-12.8-10.4-23.2-23.2-23.2Zm0,36.5c-7.3,0-13.3-6-13.3-13.3v-13.3h13.3c7.3,0,13.3,6,13.3,13.3s-5.8,13.3-13.3,13.3Z"/>
  <path class="cls-2" d="m77.5,54.8h-18V22.6h-14.8v65.1c0,18.1,14.7,32.9,32.9,32.9s32.9-14.7,32.9-32.9c-.1-18.2-14.8-32.9-33-32.9Zm0,50.8c-9.9,0-18-8.1-18-18v-18h18c9.9,0,18,8.1,18,18s-8.1,18-18,18Z"/>
</svg>