<?xml version="1.0" encoding="UTF-8"?>
<svg id="Layer_1" data-name="Layer 1" xmlns="http://www.w3.org/2000/svg" viewBox="0 0 1523 440.1">
  <defs>
    <style>
      .cls-1 {
        fill: #008afd;
      }
    </style>
  </defs>
  <path d="m533.3,327.25h46.1v-77.2h86.1v-40.9h-86.1v-51.5h110.7v-42.4h-156.8v212Z"/>
  <path d="m711.5,130.35c0,12.1,10.8,22.7,24.6,22.7s24.6-10.6,24.6-22.7-10.8-22.7-24.6-22.7c-13.8,0-24.6,10.6-24.6,22.7Zm3.1,196.9h43v-154.4h-43v154.4Z"/>
  <path d="m791.4,327.25h43v-81.8c0-24.2,16.9-40.9,36.9-40.9s32.3,11.8,32.3,34.8v87.8h43v-93.9c0-42.7-23.1-65.1-61.5-65.1-18.1,0-29.5,6.7-37.8,13-4.6,3.6-8.6,7.9-11.4,12.7h-1.5v-21.2h-43v154.6Z"/>
  <path d="m972.9,221.25c0,63.6,49.2,112.1,118.4,112.1,45.5,0,72.9-21.2,89.5-42.4,9.5-12.4,16.6-26.7,21.2-42.4h-47.7c-2.8,7.9-7.1,14.8-12.6,21.2-9.5,10.6-24.9,21.2-50.4,21.2-41.8,0-69.2-27-69.2-69.7s29.2-69.7,69.2-69.7c24.6,0,39.7,9.7,49.2,19.1,5.2,5.5,9.5,11.8,12.3,18.8h47.7c-4-14.8-10.8-28.2-20-40-15.4-20-43-40.3-89.2-40.3-69.2,0-118.4,48.5-118.4,112.1Z"/>
  <path d="m1218.7,250.05c0,45.4,36.6,81.8,84.5,81.8,33.8,0,53.8-13.6,66.1-27.3,7.1-8.2,12-17.3,15.4-27.3h-46.1c-1.8,3.3-4.3,6.4-7.4,9.1-5.8,4.5-14.1,9.1-28,9.1-20,0-36.6-16.7-40-36.3h123v-9.1c0-45.1-33.8-81.8-83-81.8s-84.5,36.4-84.5,81.8Zm46.1-16.7c4.6-15.4,18.4-28.8,38.4-28.8s33.8,13.6,36.9,28.8h-75.3Z"/>
  <path d="m1412.3,327.25h43V115.25h-43v212Z"/>
  <path d="m1480,327.25h43V115.25h-43v212Z"/>
  <path class="cls-1" d="m246.1,310.05v-51.5c10.3-1.1,20.5-2.8,30.5-5.2,33.4-7.7,64.9-21.9,92.7-41.8,7-5,13.8-10.4,20.3-16.1v-60.1c0-1.2,0-2.4-.1-3.5-26.4,24.1-57.1,43.3-90.5,56.4-33.3,13.1-68.6,19.9-104.3,20.3v-51.3c29.3-.4,58.2-6,85.5-16.7,29.6-11.6,56.6-29,79.5-51l.6-.6L220.8,7.05c-16-9.4-35.8-9.4-51.8,0L25.4,91.05C9.7,100.25,0,117.05,0,135.35v169.4c0,18.2,9.7,35.1,25.4,44.3l143.5,84c16,9.4,35.8,9.4,51.8,0l143.7-84c15.7-9.2,25.4-26,25.4-44.3v-45c-30.9,20.4-65.3,35.2-101.5,43.5-14,3.3-28,5.5-42.2,6.8Z"/>
</svg>