<?xml version="1.0" encoding="utf-8"?>
<!-- Generator: Adobe Illustrator 27.4.0, SVG Export Plug-In . SVG Version: 6.00 Build 0)  -->
<svg version="1.1" id="Layer_1" xmlns="http://www.w3.org/2000/svg" xmlns:xlink="http://www.w3.org/1999/xlink" x="0px" y="0px"
	 viewBox="0 0 425.2 124.7" style="enable-background:new 0 0 425.2 124.7;" xml:space="preserve">
<style type="text/css">
	.st0{fill:#00B7CE;}
	.st1{fill:#452500;}
	.st2{fill:#FFE4B8;}
</style>
<g id="Layer_1_00000065038381973740519600000011437551944807131033_">
	<g id="XMLID_1_">
		<ellipse id="XMLID_38_" class="st0" cx="115.6" cy="61.9" rx="61.5" ry="61.9"/>
		<path id="XMLID_34_" class="st1" d="M130.5,105.8c-5.7,1.2-11.5,1.3-17.2,0.6c-1.1-0.1-2.2-0.3-3.3-0.5
			c-8.8-1.6-16.5-5.4-22.7-11.9c-4.4-4.5-7.5-10-9.5-16.2c-1.5-4.6-2.1-9.5-2.3-14.4c-0.1-1.9-0.1-3.8,0-5.7c0.1-2.5,0.9-5,1.4-7.4
			c0.7-3.4,2.1-6.4,3.6-9.5c2.1-4.1,4.8-7.7,8-10.9c3.1-3.1,6.5-5.6,10.3-7.6c2.8-1.5,5.8-2.7,8.9-3.6c3.7-1.1,7.5-1.7,11.3-1.8
			c2.7-0.1,5.5,0.2,8.2,0.6c2.2,0.3,4.4,0.7,6.5,1.4c2.3,0.7,4.5,1.6,6.7,2.6c4.5,2,8.3,4.9,11.8,8.4c3.5,3.6,6.3,7.7,8.5,12.2
			c1.7,3.5,2.8,7.2,3.5,11s1.1,7.7,0.7,11.6c-0.2,2-0.3,4.1-0.6,6.1c-0.4,2.3-1.1,4.5-1.7,6.7c-1.1,3.5-2.7,6.9-4.8,9.9
			c-1.6,2.4-3.4,4.7-5.4,6.8c-3,3.1-6.5,5.7-10.3,7.7c-3,1.5-6.1,2.8-9.4,3.6C132,105.5,131.2,105.6,130.5,105.8z"/>
		<path id="XMLID_2_" class="st2" d="M156.9,88.4c0,0,0-1.9-0.1-12.2c-0.1-13.6-8.6-22-8.6-22s1.2,0.3,5.2-3.2s4.8-16.7-6-17
			c-10.8-0.2-10.8,9-10.8,9s-6.6-3-13.8-3s-13.3,2.4-13.3,2.4c-0.3-1.5-1.1-3.4-2.8-6.1c-1.7-2.7-12.5-4.5-16.2,4.8
			C86.8,50.5,97,53.8,97,53.8c-11,13.6-9.2,40.8-9.2,40.8c4.8,4.7,10,7.7,15.2,9.6c0.3,3.9,1,9.7,2.9,11.4c2.7,2.5,6.4,0,9.1-8.8
			c4.2,0.4,8.3,0.2,12-0.2c4.8-0.5,9.1-1.9,12.7-3.5c4.5,8.6,8.8,10.4,11,7.4c2-2.7,0.6-12,0.1-14.7
			C154.9,91.9,156.9,88.4,156.9,88.4z"/>
		<g id="XMLID_20_">
			<g id="XMLID_25_">
				<path id="XMLID_26_" d="M129,75.5c0,1.9-1.5,3.4-3.4,3.4s-3.4-1.5-3.4-3.4s1.5-1.7,3.4-1.7S129,73.6,129,75.5z"/>
			</g>
			<path id="XMLID_23_" d="M138.3,59.5c-1.9,0-3.5,2.5-3.5,5.6s1.6,5.6,3.5,5.6s3.5-2.5,3.5-5.6S140.2,59.5,138.3,59.5z"/>
			<path id="XMLID_21_" d="M112.7,59.5c-1.9,0-3.5,2.5-3.5,5.6s1.6,5.6,3.5,5.6s3.5-2.5,3.5-5.6S114.6,59.5,112.7,59.5z"/>
		</g>
		<path id="XMLID_19_" class="st0" d="M378.2,47.3c0-0.5,0-2.3-0.3-4.4c0-0.3-0.1-0.6-0.1-0.9l0,0c0-0.2-0.1-0.4-0.2-0.5
			c-0.9-2.5-3.6-4.3-6.8-4.3c0,0-3.5-0.1-7.5,0.3v11h0.1l0.3,17.1L350,40.9v-0.1l-0.1-0.2l0,0c-1.2-2-3.7-3.4-6.7-3.4
			c0,0-3.7-0.1-7.8,0.3v7.4v3.6V89h14.8V63.5L366,89h2.1h10.1V47.3L378.2,47.3z"/>
		<path id="XMLID_18_" class="st0" d="M266.9,38.2h-1.1h-3.2h-15.3h-4.5c0,0-0.1,0-0.2,0h-1.1l0,0c-0.8,0-1.9,0.1-3.1,0.2
			c-0.3,0-0.6,0.1-0.9,0.1l0,0c-0.2,0-0.3,0.1-0.5,0.1c-2.4,0.7-4.2,3-4.2,5.7c0,0-0.1,2.9,0.3,6.3h9.7h1.1h3.4V89h15.3V50.6h4.3
			c0,0,2,0,4.4-0.2c0.3,0,0.6-0.1,0.9-0.1l0,0c0.2,0,0.3-0.1,0.5-0.1c2.4-0.7,4.2-3,4.2-5.7c0,0,0.1-2.9-0.3-6.3H266.9z"/>
		<path id="XMLID_17_" class="st0" d="M43,47.4c0,0,0-2.1-0.3-4.5c0-0.3-0.1-0.6-0.1-0.9l0,0c0-0.2-0.1-0.4-0.2-0.5
			c-0.9-2.5-3.7-4.3-7.1-4.3c0,0-3.7-0.1-7.8,0.3v7.4v2.5v1.1V57h-12v-5.9l0,0v-3.7c0,0,0-2.1-0.3-4.5c0-0.3-0.1-0.6-0.1-0.9l0,0
			c0-0.2-0.1-0.4-0.2-0.5c-0.9-2.5-3.7-4.3-7.1-4.3c0,0-3.7-0.1-7.8,0.3v7.4v2.5v1.1v16V89h15.5V69h12.1v20H43V51.1l0,0V47.4z"/>
		<path id="XMLID_16_" class="st0" d="M312.4,49.8c0,0,2,0,4.4-0.2c0.3,0,0.6,0,0.9-0.1l0,0c0.2,0,0.3-0.1,0.5-0.1
			c2.4-0.7,4.2-2.8,4.2-5.3c0,0,0.1-2.8-0.3-5.9h-9.7h-1.1h-12.4l0,0h-11.1V89h11.1h4.1h8.3h1.1h9.7c0.4-3.1,0.3-5.9,0.3-5.9
			c0-2.5-1.8-4.6-4.2-5.3c-0.2-0.1-0.3-0.1-0.5-0.1l0,0c-0.3-0.1-0.6-0.1-0.9-0.1c-2.4-0.2-4.4-0.2-4.4-0.2H303v-8.1h14.6V57.5H303
			v-7.7H312.4z"/>
		<path id="XMLID_43_" class="st0" d="M221.6,68c-0.5-2-1.4-3.7-2.8-5.2c-1.9-2.2-4.4-3.7-7.1-4.7c-2.2-0.9-4.5-1.6-6.7-2.4
			c-1.1-0.4-2.2-1-3.1-1.6c-1.5-1.1-1.4-3.2,0.1-4.3c0.9-0.7,2-0.9,3.1-1c2.1-0.2,4.2,0.3,6.2,0.9c2.1,0.7,4.1,1.5,5.9,2.7l0.5,0.3
			l0.4-0.5c0.6-1,1.3-1.9,1.9-2.8c0.8-1.3,1.4-2.6,1.4-4.1c0-0.8-0.1-1.6-0.5-2.3c-0.9-1.4-2.2-2.3-3.7-3c-2.2-1-4.5-1.8-6.9-2.2
			c-2.2-0.4-4.4-0.5-6.7-0.5c-3.2,0.1-6.2,0.5-9.2,1.7c-4,1.6-7.1,4.3-8.8,8.4c-0.7,1.7-1,3.5-1,5.3c0,2.2,0.1,4.3,1,6.4
			c1,2.6,2.7,4.6,4.9,6.2c2.5,1.8,5.5,2.7,8.3,3.8c1.6,0.6,3.3,1.2,4.9,2c1.3,0.7,2.4,1.7,2.6,3.3c0.3,2.5-1,4.1-3.2,4.4
			c-1.1,0.2-2.2,0.1-3.2,0.1c-2-0.1-3.9-0.5-5.7-1.4c-1.9-1-3.8-2-5.8-3c-0.1,0.1-0.2,0.2-0.4,0.4c-0.8,1.2-1.7,2.3-2.4,3.5
			c-0.6,1-1.1,2.1-1.3,3.2c-0.4,2.2,0.4,4,2.3,5.3c2.3,1.6,4.9,2.4,7.6,2.9c2,0.4,4.1,0.6,6.1,0.7c4.4,0.2,8.7-0.3,12.7-2.2
			c2.5-1.2,4.5-2.9,6.1-5.2c1.7-2.5,2.6-5.3,2.8-8.2C222.2,72.4,222.2,70.2,221.6,68z"/>
		<path id="XMLID_30_" class="st0" d="M424.7,68c-0.5-2-1.4-3.7-2.8-5.2c-1.9-2.2-4.4-3.7-7.1-4.7c-2.2-0.9-4.5-1.6-6.7-2.4
			c-1.1-0.4-2.2-1-3.1-1.6c-1.5-1.1-1.4-3.2,0.1-4.3c0.9-0.7,2-0.9,3.1-1c2.1-0.2,4.2,0.3,6.2,0.9c2.1,0.7,4.1,1.5,5.9,2.7l0.5,0.3
			l0.4-0.5c0.6-1,1.3-1.9,1.9-2.8c0.8-1.3,1.4-2.6,1.4-4.1c0-0.8-0.1-1.6-0.5-2.3c-0.9-1.4-2.2-2.3-3.7-3c-2.2-1-4.5-1.8-6.9-2.2
			c-2.2-0.4-4.4-0.5-6.7-0.5c-3.2,0.1-6.2,0.5-9.2,1.7c-4,1.6-7.1,4.3-8.8,8.4c-0.7,1.7-1,3.5-1,5.3c0,2.2,0.1,4.3,1,6.4
			c1,2.6,2.7,4.6,4.9,6.2c2.5,1.8,5.5,2.7,8.3,3.8c1.6,0.6,3.3,1.2,4.9,2c1.3,0.7,2.4,1.7,2.6,3.3c0.3,2.5-1,4.1-3.2,4.4
			c-1.1,0.2-2.2,0.1-3.2,0.1c-2-0.1-3.9-0.5-5.7-1.4c-1.9-1-3.8-2-5.8-3c-0.1,0.1-0.2,0.2-0.4,0.4c-0.8,1.2-1.7,2.3-2.4,3.5
			c-0.6,1-1.1,2.1-1.3,3.2c-0.4,2.2,0.4,4,2.3,5.3c2.3,1.6,4.9,2.4,7.6,2.9c2,0.4,4.1,0.6,6.1,0.7c4.4,0.2,8.7-0.3,12.7-2.2
			c2.5-1.2,4.5-2.9,6.1-5.2c1.7-2.5,2.6-5.3,2.8-8.2C425.3,72.4,425.3,70.2,424.7,68z"/>
	</g>
</g>
<g id="Layer_2_00000047062317696246527720000007352121737776468914_">
</g>
</svg>
