<?xml version="1.0" encoding="UTF-8"?>
<svg id="Layer_1" data-name="Layer 1" xmlns="http://www.w3.org/2000/svg" viewBox="0 0 1220.08 407.6">
  <defs>
    <style>
      .cls-1 {
        fill: #00dadc;
      }

      .cls-2 {
        fill: #00d3b7;
      }

      .cls-3 {
        fill: #928df2;
      }

      .cls-4 {
        fill: #24345f;
      }

      .cls-5 {
        fill: #4057e3;
      }

      .cls-6 {
        fill: #28345c;
      }
    </style>
  </defs>
  <path class="cls-4" d="m1220.08,356.3c0-9.4-2.7-17.1-8.1-23.2-5.4-6-12-9-19.8-9-8.6,0-15.4,3.8-20.3,11.3v-9.9h-13.7v80.8h13.7v-27.7c4.9,6.5,11.5,9.8,19.7,9.8s14.7-3,20.2-8.9c5.6-6,8.3-13.7,8.3-23.2Zm-14.2,0c0,5.9-1.6,10.7-4.7,14.3s-7.2,5.5-12.4,5.5-9.2-1.8-12.5-5.5c-3.2-3.6-4.8-8.4-4.8-14.3,0-6.2,1.6-11.1,4.7-14.6s7.3-5.2,12.5-5.2,9.2,1.9,12.4,5.6c3.2,3.8,4.8,8.5,4.8,14.2Zm-93.5,32.1c7.3,0,13.1-3.7,17.5-11v9.7h13.7v-61.6h-13.7v33.1c0,3.4-.3,6.2-.9,8.3-.8,2.7-2.3,4.9-4.4,6.5s-4.7,2.4-7.8,2.4c-5.8,0-9.3-2.5-10.4-7.6-.4-1.7-.6-4.4-.6-8.1v-34.6h-13.6v34.9c0,6.2.3,10.7,1,13.5,1.1,4.3,3.2,7.8,6.5,10.5s7.5,4,12.7,4Zm-81.4-32.1c0-5.5,1.7-10.2,5.2-13.9s7.9-5.6,13.1-5.6,9.6,1.9,13.1,5.6,5.2,8.3,5.2,13.9c0,5.3-1.8,9.9-5.3,13.7s-7.9,5.7-13,5.7-9.6-1.8-13.1-5.5-5.2-8.4-5.2-13.9Zm-13.9,0c0,9.2,3.1,16.8,9.3,22.9,6.2,6.1,13.8,9.2,22.9,9.2s16.7-3.1,22.9-9.4c6.2-6.3,9.3-13.8,9.3-22.7s-3.1-16.9-9.3-23-13.8-9.2-22.9-9.2-16.7,3.1-22.9,9.2-9.3,13.7-9.3,23Zm-4.3-32c-.8-.2-2.1-.2-3.8-.2-4,0-7.5,1.2-10.6,3.5-3,2.4-5.4,5.7-7.1,10.1v-12.3h-13.7v61.6h13.7v-27.7c0-4.4.3-7.7.9-10,2-7.4,6.9-11,14.7-11,2,0,3.9.2,5.8.6l.1-14.6h0Zm-95.5,29.7c0-5.2,1.5-9.5,4.4-12.7,3-3.3,6.9-4.9,11.8-4.9s8.8,1.6,11.8,4.8,4.5,7.5,4.5,12.8-1.5,9.7-4.5,12.9c-3,3.1-6.9,4.7-11.8,4.7s-8.8-1.7-11.8-5.1c-2.9-3.4-4.4-7.6-4.4-12.5Zm45.6-28.6h-13.7v9c-4.6-6.9-10.8-10.4-18.7-10.4s-14.2,2.8-19.5,8.4-8,12.7-8,21.5,2.7,15.8,8,21.5,11.9,8.5,19.7,8.5,14.1-3.3,18.5-10v4.4c0,11.4-5.3,17.1-15.8,17.1-8.3,0-13.4-3-15.4-9.1l-13.5,1.7c.9,5.5,3.8,10.1,8.8,13.9s11.6,5.7,20,5.7c9.5,0,16.8-2.6,21.9-7.7,5.1-5.2,7.7-12.3,7.7-21.5v-53Z"/>
  <g>
    <path class="cls-6" d="m974.27,238.8l-11.5-21.2c-.8-1.4-2.2-2.2-3.7-2.2-.6,0-1.3.1-1.9.4-6.5,3.1-13.1,4.8-20.2,4.8-7.5,0-14.2-2.1-19-6.7-4.9-4.5-7.6-11.3-7.6-20v-79.2h39.9c4.9,0,8.8-4,8.8-8.8v-19.7c0-4.9-4-8.8-8.8-8.8h-39.9V17.8c0-6.8-8.2-10.2-13-5.4l-21.6,21.6c-6.1,6.1-9.5,14.3-9.6,22.9v137.8c0,20.7,6.6,36.1,17.3,46.4,10.8,10.3,26,15.7,43.6,15.7,15.8,0,31-4.1,45.5-12.3,1.4-.8,2.3-2.3,2.3-3.8-.1-.6-.3-1.3-.6-1.9"/>
    <path class="cls-2" d="m32.77,53.3c-3.7-3.7-9.8-3.7-13.5,0L2.78,69.8c-3.7,3.7-3.7,9.8,0,13.5l55.3,55.3c3.7,3.7,9.8,3.7,13.5,0l16.5-16.5c3.7-3.7,3.7-9.8,0-13.5l-55.3-55.3Z"/>
    <path class="cls-1" d="m184.87,53.3c-3.7-3.7-9.8-3.7-13.5,0l-55.3,55.3c-3.7,3.7-3.7,9.8,0,13.5l16.5,16.5c3.7,3.7,9.8,3.7,13.5,0l55.3-55.3c3.7-3.7,3.7-9.8,0-13.5l-16.5-16.5Z"/>
    <path class="cls-3" d="m71.68,165.1c-3.7-3.7-9.8-3.7-13.5,0L2.87,220.4c-3.7,3.8-3.7,9.8,0,13.5l16.5,16.5c3.7,3.7,9.8,3.7,13.5,0l55.3-55.3c3.7-3.7,3.7-9.8,0-13.5l-16.5-16.5Z"/>
    <path class="cls-5" d="m146.07,165.1c-3.7-3.7-9.8-3.7-13.5,0l-16.5,16.5c-3.7,3.7-3.7,9.8,0,13.5l55.3,55.3c3.7,3.7,9.8,3.7,13.5,0l16.5-16.5c3.7-3.7,3.7-9.8,0-13.5l-55.3-55.3Z"/>
    <path class="cls-4" d="m90.08,47.2h24c5.4,0,9.8-4.4,9.8-9.8V10c0-5.4-4.4-9.8-9.8-9.8h-24c-5.4,0-9.8,4.4-9.8,9.8v27.4c0,5.3,4.4,9.7,9.8,9.8Z"/>
    <path class="cls-4" d="m693.18,73c-23.8.1-41.1,8.8-52.6,26l-4.2,6.3v-17.6c0-5.6-4.6-10.2-10.2-10.2h-23.4c-5.6,0-10.2,4.6-10.2,10.2v154.1c0,6.4,5.2,11.6,11.6,11.6h20.9c6.4,0,11.6-5.2,11.6-11.6v-80.2c0-15,3.6-28,10.7-37.3,7.1-9.3,17.8-14.9,31.2-14.8,10.9,0,19.7,3.6,25.4,10.8,5.8,7.2,8.4,17.6,8.5,31.1v93.6c0,4.7,3.8,8.4,8.5,8.5h24.1c6.4,0,11.6-5.2,11.6-11.6v-101.1c0-21.6-6.8-38.5-18-50-11.1-11.6-26.9-17.8-45.5-17.8Z"/>
    <path class="cls-4" d="m1207.08,167.6c-3.6-2.9-8.4-5.8-14.6-8.4-12.8-5.2-19.7-6.3-34.6-9l-4.6-.8c-8.6-1.6-15.8-2.9-21.8-4.7s-10.8-4-14.1-7.7c-2.2-2.5-3.7-5.6-4.3-9.3v-.4c0-5.2,2.4-10.4,7.4-13.9s12.4-5.5,22.6-5.5c14.4,0,27.4,4.3,39,12.6,1,.7,2.2,1.1,3.3,1.1,1.6,0,3.2-.7,4.3-2l16.2-19.8c.9-1.1,1.3-2.3,1.3-3.6,0-1.8-.8-3.5-2.3-4.5-17.5-12.6-38.7-18.8-63.7-18.8-20.6,0-37.6,4.5-51.3,13.7-13.4,9.1-20.3,23-20.3,41.9,0,16,7.7,29.2,15.2,36,3.5,3.2,9,6.5,16.8,9.5h0c8.3,3.2,13.2,4.8,18.2,6.1s10.3,2.2,19.5,4.1c9.7,1.9,17.1,3.5,22.8,5.3,5.6,1.9,9.5,4.1,11.9,7.5,1.6,2.3,2.2,5,2.2,8,0,2.7-.7,5.3-2.1,7.5s-3.4,4-6,5.3c-5.1,2.7-12.3,3.9-21.6,3.9-23,0-41.8-8-56.1-23.8-1.2-1.3-2.7-1.9-4.3-1.9-1.5,0-2.9.5-4,1.7l-20.1,20.6c-1.1,1.1-1.6,2.6-1.6,4,0,1.3.5,2.7,1.4,3.7,8.2,8.9,19.1,16.2,32.5,21.5,16.2,6.4,32.2,9.7,48.7,9.7,21.3,0,39.5-5.2,54.7-16,15.1-10.7,22.2-24.7,22.3-42.7,0-13.2-6.2-24.9-12.9-30.9Z"/>
    <path class="cls-4" d="m1025.98,77.5h-19.3c-6.9,0-12.4,5.6-12.4,12.5v151.1c0,6.9,5.6,12.4,12.4,12.4h19.3c6.9,0,12.4-5.6,12.5-12.4V90c-.1-6.9-5.6-12.5-12.5-12.5Z"/>
    <path class="cls-4" d="m336.68,77.5h-24.3c-5.5,0-9.9,4.5-10,10v156.1c0,5.5,4.5,9.9,10,10h24.3c5.5,0,9.9-4.5,10-10V87.5c-.1-5.5-4.5-10-10-10Z"/>
    <path class="cls-4" d="m312.47,47.1h24c5.4,0,9.8-4.4,9.8-9.8V9.8c0-5.4-4.4-9.8-9.8-9.8h-24c-5.4,0-9.8,4.4-9.8,9.8v27.4c0,5.5,4.4,9.9,9.8,9.9Z"/>
    <path class="cls-4" d="m819.97,77.5h-19.3c-6.9,0-12.4,5.6-12.4,12.5v151.1c0,6.9,5.6,12.4,12.4,12.4h19.3c6.9,0,12.4-5.6,12.4-12.4V90c0-6.9-5.6-12.5-12.4-12.5Z"/>
    <path class="cls-4" d="m798.27,47.1h24c5.4,0,9.8-4.4,9.8-9.8V9.8c0-5.4-4.4-9.8-9.8-9.8h-24c-5.4,0-9.8,4.4-9.8,9.8v27.4c0,5.5,4.4,9.9,9.8,9.9Z"/>
    <path class="cls-4" d="m1004.38,47.1h24c5.4,0,9.8-4.4,9.8-9.8V9.8c0-5.4-4.4-9.8-9.8-9.8h-24c-5.4,0-9.8,4.4-9.8,9.8v27.4c0,5.5,4.4,9.9,9.8,9.9Z"/>
    <path class="cls-4" d="m550.88,77.5h-23.4c-5.6,0-10.2,4.6-10.2,10.2v23.8l-4.2-7.3c-4.9-8.6-11.6-14.9-20.3-19.1-8.6-4.2-19.3-6.4-32.2-6.4-14.7,0-28.2,2.9-40.6,8.7-8,3.8-15.6,8.7-22.6,15h0c-18.1,15.9-27,38-27,66.5s8.6,49.8,25.9,64.9l.8.6c11.3,9.9,23.8,16.5,37.5,20,7.3,1.8,15,2.8,23.1,2.8,13.1,0,24.2-2.3,33.5-6.9s16.7-11.4,22.4-20.6l4.2-6.8v30.8c0,15.9-5.3,29-14.5,38s-22.1,13.8-36.9,13.8c-22.5,0-43-11.1-52.3-32.2v-.1c-1-2.3-3.7-3.3-6-2.4l-31.4,12c-2,.8-3.1,2.6-3.1,4.6,0,.7.1,1.3.4,2,15.1,34,49.5,53.3,89.2,53.4,27,0,50-8.2,69.4-24.2,18.9-16.3,28.5-38.8,28.5-68l-.1-162.7c.1-5.8-4.5-10.4-10.1-10.4Zm-49.8,129.4c-9.7,9.2-23.1,14.3-37.5,14.3-8.1,0-15.7-1.6-22.5-4.7-4.7-2.1-8.9-5-12.6-8.6-9-8.9-14.4-22.1-14.4-39.3s5.1-30.5,14-39.7c7.4-7.7,17.3-12.2,28.6-13.5,2.3-.3,4.6-.5,7-.4,14.4,0,27.7,4.9,37.5,14.1,9.8,9.1,15.8,22.5,15.8,38.8-.1,16.3-6.1,29.7-15.9,39Z"/>
  </g>
</svg>