<?xml version="1.0" encoding="UTF-8"?>
<svg id="Layer_1" data-name="Layer 1" xmlns="http://www.w3.org/2000/svg" viewBox="0 0 2109.14 742.57">
  <defs>
    <style>
      .cls-1 {
        fill: #00b37d;
      }

      .cls-2 {
        fill: #ffd530;
      }

      .cls-3 {
        fill: #075baa;
      }
    </style>
  </defs>
  <rect class="cls-3" width="742.38" height="742.57"/>
  <g id="ls6ew">
    <circle class="cls-2" cx="198.66" cy="162.8" r="63.17"/>
  </g>
  <path class="cls-2" d="m275.7,299.57c29.57,222.65,113.42,282.53,150.87,298.34,1.46.62,2.15,2.31,1.53,3.78-.46,1.1-1.56,1.79-2.75,1.75h-118.1c-141.88,0-184.75-278.22-184.75-303.87h153.2Z"/>
  <path class="cls-1" d="m619.88,162.8c-11.3,340.95-141.18,466.23-227.79,314,81.35-132.06,74.56-314,74.56-314h153.23Z"/>
  <path class="cls-3" d="m941.9,341.57h-39.1v-205.26h39.1v205.26Z"/>
  <path class="cls-3" d="m1055.31,190.07c8.35-.1,16.65,1.39,24.44,4.4,7.2,2.81,13.7,7.14,19.06,12.71,5.46,5.74,9.68,12.55,12.38,20,3.05,8.46,4.54,17.41,4.4,26.4v88h-37.47v-83.07c0-9.78-2.88-17.66-8.63-23.63-5.75-5.97-13.2-8.97-22.33-9-9.12,0-16.56,3-22.32,9-5.76,6-8.64,13.88-8.64,23.63v83.06h-37.47v-149.87h27.7l6.51,14.67c3.76-3.08,7.8-5.81,12.06-8.15,4.25-2.19,8.66-4.04,13.2-5.54,5.52-1.8,11.3-2.68,17.11-2.61Z"/>
  <path class="cls-3" d="m1160.67,155.86h32.59v35.84h32.58v34.22h-32.58v61.91c0,6.52,1.9,11.68,5.7,15.48,3.79,3.81,9,5.71,15.47,5.71,1.42.02,2.83-.04,4.24-.17.99-.08,1.97-.24,2.94-.48.9-.24,1.77-.57,2.6-1v32.6c-1.68.7-3.43,1.24-5.21,1.62-4.14,1.15-8.42,1.7-12.71,1.63-6.97.08-13.89-1.2-20.37-3.75-6.08-2.4-11.55-6.13-16-10.91-4.55-4.93-8.1-10.71-10.43-17-2.6-7.09-3.87-14.6-3.75-22.15v-63.49h-22.77v-31h9.77c11.95,0,17.92-5.97,17.93-17.92v-21.14Z"/>
  <path class="cls-3" d="m1387.15,295.98c-2.17,6.07-5.2,11.79-9,17-4.09,5.72-9.01,10.81-14.58,15.1-5.95,4.57-12.54,8.24-19.55,10.91-7.54,2.88-15.56,4.31-23.63,4.24-9.93.07-19.76-1.97-28.84-6-8.9-3.93-16.97-9.51-23.79-16.45-6.89-7.02-12.41-15.25-16.29-24.28-8.04-19.07-8.04-40.57,0-59.64,3.87-9.03,9.37-17.27,16.24-24.29,6.82-6.94,14.89-12.52,23.79-16.46,17.99-7.87,38.42-8.04,56.54-.49,8.58,3.62,16.34,8.95,22.81,15.65,6.69,7.01,11.95,15.27,15.48,24.3,3.89,9.91,5.82,20.48,5.7,31.12,0,1.67-.11,3.34-.32,5-.22,1.64-.44,3.21-.65,4.73-.22,1.74-.44,3.37-.66,4.89h-104.27c1.62,7.21,5.51,13.72,11.08,18.57,5.64,5,13.35,7.5,23.13,7.49,4.24.11,8.47-.44,12.55-1.62,3.03-.93,5.93-2.25,8.63-3.91,2.46-1.61,4.66-3.59,6.52-5.87h39.11Zm-66.81-70.06c-9.78,0-17.78,2.82-24,8.47-6.1,5.49-10.28,12.81-11.9,20.86h71.7c-1.63-8.05-5.8-15.36-11.9-20.86-6.15-5.65-14.12-8.48-23.9-8.47Z"/>
  <path class="cls-3" d="m1489.79,190.07c1.53-.02,3.06.09,4.57.33,1.3.22,2.49.44,3.58.65l3.26.65v39.11c-1.09-.22-2.28-.43-3.59-.65-1.09-.22-2.44-.44-4.07-.66-1.78-.22-3.58-.33-5.38-.32-9.12,0-16.56,3-22.32,9s-8.64,13.88-8.64,23.63v79.76h-37.47v-149.87h27.7l6.51,16.3c2.72-3.37,5.91-6.33,9.46-8.8,3.44-2.62,7.22-4.76,11.24-6.36,4.82-1.91,9.97-2.85,15.15-2.77Z"/>
  <path class="cls-3" d="m1602.22,190.07c8.35-.1,16.65,1.39,24.44,4.4,7.2,2.81,13.7,7.14,19.06,12.71,5.46,5.75,9.67,12.55,12.38,20,3.05,8.46,4.54,17.41,4.4,26.4v88h-37.47v-83.07c0-9.78-2.88-17.66-8.63-23.63-5.75-5.97-13.2-8.97-22.33-9-9.12,0-16.56,3-22.32,9s-8.64,13.88-8.64,23.63v83.06h-37.47v-149.87h27.7l6.51,14.67c3.76-3.09,7.79-5.82,12.06-8.15,4.25-2.19,8.66-4.04,13.2-5.54,5.52-1.8,11.3-2.68,17.11-2.61Z"/>
  <path class="cls-3" d="m1830.33,295.98c-2.17,6.07-5.2,11.79-9,17-4.11,5.74-9.05,10.85-14.66,15.15-5.95,4.57-12.54,8.24-19.55,10.91-7.54,2.88-15.56,4.31-23.63,4.24-9.93.07-19.76-1.97-28.84-6-8.9-3.93-16.97-9.51-23.79-16.45-6.89-7.04-12.42-15.3-16.29-24.36-8.04-19.07-8.04-40.57,0-59.64,3.89-9.03,9.43-17.25,16.32-24.26,6.82-6.94,14.89-12.52,23.79-16.46,17.99-7.87,38.42-8.04,56.54-.49,8.58,3.62,16.34,8.94,22.81,15.65,6.69,7.01,11.95,15.27,15.48,24.3,3.89,9.91,5.82,20.48,5.7,31.12,0,1.67-.11,3.34-.32,5-.22,1.64-.44,3.21-.65,4.73-.22,1.74-.44,3.37-.66,4.89h-104.27c1.62,7.21,5.51,13.72,11.08,18.57,5.64,5,13.35,7.5,23.13,7.49,4.24.11,8.47-.44,12.55-1.62,3.03-.93,5.93-2.25,8.63-3.91,2.46-1.61,4.66-3.59,6.52-5.87h39.11Zm-66.76-70.06c-9.78,0-17.76,2.82-23.95,8.47-6.1,5.5-10.28,12.81-11.9,20.86h71.7c-1.63-8.05-5.8-15.36-11.9-20.86-6.23-5.65-14.21-8.48-23.95-8.47Z"/>
  <path class="cls-3" d="m1877.32,155.86h32.58v35.84h32.59v34.22h-32.59v61.91c0,6.52,1.9,11.68,5.7,15.48,3.8,3.8,8.96,5.7,15.48,5.71,1.42.02,2.83-.04,4.24-.17.99-.08,1.97-.24,2.93-.48.9-.24,1.78-.57,2.61-1v32.6c-1.68.7-3.43,1.24-5.21,1.62-4.14,1.15-8.42,1.7-12.71,1.63-6.97.08-13.89-1.19-20.37-3.75-6.08-2.4-11.54-6.12-16-10.9-4.55-4.94-8.09-10.71-10.43-17-2.59-7.09-3.86-14.6-3.74-22.15v-63.5h-22.81v-31h9.77c11.95,0,17.92-5.97,17.93-17.92l.03-21.14Z"/>
  <path class="cls-3" d="m2109.14,266.65c.09,10.25-1.95,20.4-6,29.82-3.88,9.03-9.4,17.26-16.29,24.28-6.82,6.93-14.89,12.52-23.79,16.45-18.39,8.04-39.29,8.04-57.68,0-8.91-3.93-16.98-9.51-23.81-16.45-6.89-7.02-12.41-15.25-16.29-24.28-8.04-19.07-8.04-40.57,0-59.64,3.88-9.02,9.41-17.25,16.29-24.26,6.82-6.94,14.89-12.52,23.79-16.46,18.39-8.04,39.29-8.04,57.68,0,8.89,3.94,16.96,9.53,23.78,16.46,6.88,7.01,12.41,15.24,16.29,24.27,4.05,9.41,6.11,19.56,6.03,29.81Zm-112.42,0c0,12.39,3.58,22.27,10.75,29.65,7.17,7.38,16.07,11.07,26.72,11.08,10.67,0,19.57-3.69,26.72-11.08,7.15-7.39,10.73-17.27,10.76-29.65,0-12.38-3.59-22.26-10.76-29.65-7.17-7.39-16.08-11.08-26.72-11.08s-19.57,3.69-26.72,11.08c-7.15,7.39-10.73,17.27-10.75,29.65h0Z"/>
  <path class="cls-3" d="m1043.57,456.36l-57,149.9h-35.85l-57-149.9h39.11l35.85,103.62,35.84-103.62h39.05Z"/>
  <path class="cls-3" d="m1082.68,436.81c-12,.3-21.98-9.18-22.29-21.18-.3-12,9.18-21.98,21.18-22.29,12-.3,21.98,9.18,22.29,21.18.15,5.96-2.15,11.71-6.36,15.93-3.85,4.07-9.21,6.38-14.82,6.36Zm17.89,169.45h-37.47v-149.9h37.47v149.9Z"/>
  <path class="cls-3" d="m1193.57,492.2h-65.18v-35.84h112.43v31l-65.25,83.05h68.43v35.85h-115.65v-31l65.22-83.06Z"/>
  <path class="cls-3" d="m1291.29,436.81c-12,.3-21.98-9.18-22.29-21.18-.3-12,9.18-21.98,21.18-22.29,12-.3,21.98,9.18,22.29,21.18.15,5.96-2.15,11.71-6.36,15.93-3.85,4.07-9.21,6.38-14.82,6.36Zm17.92,169.45h-37.47v-149.9h37.47v149.9Z"/>
  <path class="cls-3" d="m1383.51,606.26c.12,7.55-1.15,15.07-3.75,22.16-2.34,6.27-5.88,12.02-10.42,16.94-4.46,4.78-9.92,8.51-16,10.92-6.49,2.55-13.4,3.82-20.37,3.75-4.29.07-8.57-.48-12.71-1.63-1.78-.38-3.53-.93-5.21-1.63v-32.59c.7.46,1.47.8,2.28,1,2.47.46,4.98.68,7.49.65,6.52,0,11.68-1.9,15.48-5.7,3.8-3.8,5.7-8.96,5.71-15.48v-148.29h37.47l.03,149.9Zm-17.94-169.45c-12,.3-21.98-9.18-22.29-21.18-.3-12,9.18-21.98,21.18-22.29,12-.3,21.98,9.18,22.29,21.18.15,5.96-2.15,11.71-6.36,15.93-3.85,4.07-9.21,6.38-14.82,6.36Z"/>
  <path class="cls-3" d="m1481.27,454.73c8.03-.08,16,1.41,23.46,4.4,14.07,5.59,25.21,16.73,30.8,30.79,2.99,7.46,4.48,15.43,4.4,23.46v92.88h-27.7l-6.52-14.69c-3.52,3.08-7.34,5.81-11.4,8.15-4.23,2.4-8.71,4.32-13.37,5.71-5.71,1.69-11.64,2.52-17.59,2.44-16.29,0-28.78-3.97-37.48-11.9-8.7-7.93-13.03-18.09-13-30.46-.08-7.03,1.42-14,4.4-20.37,2.93-6.19,7.87-11.53,14.82-16,6.95-4.47,16.11-7.93,27.48-10.38,11.41-2.49,25.7-3.74,42.85-3.74,0-8.26-2.23-14.67-6.68-19.23-4.45-4.56-10.37-6.84-17.76-6.85-5,0-8.97.87-11.9,2.61-2.6,1.48-4.96,3.35-7,5.54-1.94,2.36-3.28,5.16-3.91,8.15h-37.48c.82-6.83,2.85-13.45,6-19.56,3.18-6.14,7.55-11.58,12.87-16,5.77-4.76,12.33-8.45,19.39-10.92,8.14-2.81,16.71-4.17,25.32-4.03Zm-11.41,123.84c9.78,0,17.66-2.88,23.63-8.63,5.97-5.75,8.97-13.2,9-22.33v-6.52c-8.93-.12-17.86.37-26.72,1.47-6.74.98-12.01,2.39-15.8,4.24-3.79,1.85-6.35,4.07-7.66,6.68-1.35,2.74-2.03,5.75-2,8.8,0,4.13,1.85,7.87,5.54,11.24,3.69,3.37,8.36,5.05,14.01,5.05Z"/>
</svg>