<?xml version="1.0" encoding="UTF-8"?><svg id="Layer_1" xmlns="http://www.w3.org/2000/svg" viewBox="0 0 222 66"><defs><style>.cls-1{fill:#fff;}.cls-2{fill:#ed1c24;}</style></defs><path d="m22.41,24.55c1.04,0,1.6.57,1.6,1.51s-.57,1.51-1.6,1.51h-5.57v13.96c0,1.13-.66,1.79-1.7,1.79s-1.6-.66-1.6-1.79v-13.96h-5.66c-1.04,0-1.6-.57-1.6-1.51s.57-1.51,1.6-1.51c0,0,14.53,0,14.53,0Z"/><path d="m33.83,26.15v15.38c0,1.13-.57,1.79-1.6,1.79s-1.7-.66-1.7-1.79v-15.38c0-1.13.57-1.79,1.7-1.79.94,0,1.6.66,1.6,1.79Z"/><path d="m62.79,26.63v14.91c0,1.13-.66,1.79-1.7,1.79s-1.6-.66-1.6-1.79v-11.32h-.09l-5.28,8.59c-.38.57-.85.94-1.51.94s-1.23-.38-1.51-.94l-5.47-8.68h-.09v11.51c0,1.04-.57,1.79-1.6,1.79s-1.6-.66-1.6-1.79v-14.91c0-1.32.75-2.26,2.17-2.26.85,0,1.6.38,2.17,1.32l5.85,9.62,6.04-9.72c.57-1.04,1.32-1.32,2.17-1.32,1.32,0,2.08.94,2.08,2.26Z"/><path d="m85.24,40.12c1.04,0,1.6.57,1.6,1.51s-.66,1.51-1.6,1.51h-12.26c-1.13,0-1.79-.66-1.79-1.79v-15.09c0-1.13.66-1.79,1.79-1.79h12.26c1.04,0,1.6.57,1.6,1.51s-.66,1.51-1.6,1.51h-10.76v4.72h8.68c1.04,0,1.6.57,1.6,1.51s-.57,1.51-1.6,1.51h-8.68v4.81l10.76.09h0Z"/><path d="m108.55,36.06c.94,0,1.6.47,1.6,1.42,0,.85-.66,1.51-1.6,1.51h-1.32v2.55c0,1.13-.66,1.7-1.6,1.7-1.04,0-1.6-.66-1.6-1.7v-2.55h-8.68c-1.04,0-1.7-.66-1.7-1.6,0-.57.19-.94.57-1.42l9.43-10.76c.47-.57,1.04-.85,1.7-.85,1.13,0,1.89.85,1.89,2.08v9.62h1.32Zm-4.53,0v-6.98l-6.13,6.98h6.13Z"/><path class="cls-2" d="m180.06,30.87c-.28-2.36-1.23-9.72-7.17-15-1.7-1.51-5.85-5.19-10.19-4.25-4.81,1.04-6.89,7.08-8.4,11.42-2.17,6.23-6.23,17.74.57,25.19,4.25,4.62,12.08,7.08,18.02,4.25,9.15-4.53,7.45-19.25,7.17-21.6Z"/><path class="cls-2" d="m215.62,31.63c-.47-6.7-4.25-15.47-11.79-18.68-7.36-3.11-14.62.75-18.02,5.94-6.79,10.57-.19,30.94,9.34,34.34,9.06,3.11,21.32-8.3,20.47-21.6Z"/><path class="cls-2" d="m149.21,23.23c-.09-.75-.75-6.42-3.59-8.96-5.28-4.72-20.38-1.32-26.42,8.96-4.34,7.36-4.43,18.96,3.02,25.19,4.91,4.06,12.74,5.47,18.02,2.36,3.96-2.36,5.47-8.4,8.4-20.38.38-1.6.94-4.06.57-7.17Z"/><path class="cls-1" d="m140.06,24.08c-.75,0-1.32.38-1.6,1.23l-5.94,12.92-5.94-13.02c-.28-.66-.94-1.13-1.6-1.13-1.04,0-1.79.75-1.79,1.79,0,.28.09.57.19.94l6.98,15c.47.94,1.23,1.51,2.17,1.51s1.7-.57,2.08-1.51l6.98-15c.19-.38.19-.66.19-1.04.09-.94-.66-1.7-1.7-1.7Z"/><path class="cls-1" d="m168.26,23.98h-8.02c-1.13,0-1.89.75-1.89,1.89v15.19c0,1.23.66,1.89,1.79,1.89s1.79-.75,1.79-1.89v-4.91h6.32c4.15,0,6.42-2.17,6.42-6.13,0-3.87-2.26-6.04-6.42-6.04Zm2.83,6.13c0,1.89-1.04,2.83-3.11,2.83h-6.04v-5.57h5.94c2.08-.09,3.21.94,3.21,2.74Z"/><path class="cls-1" d="m199.11,31.82c-3.11,0-4.62-.38-4.62-1.89,0-1.6,1.7-2.74,4.25-2.74,1.98,0,3.49.57,4.91,1.6.28.19.66.38,1.32.38.85,0,1.51-.66,1.51-1.6,0-.57-.19-1.04-.57-1.42-1.7-1.51-4.06-2.26-6.89-2.26-4.91,0-8.11,2.45-8.11,6.13s2.17,5.19,7.92,5.28c3.11.09,4.81.38,4.81,2.08s-1.6,2.74-4.34,2.74c-2.45,0-4.43-.66-5.85-2.08-.28-.28-.66-.38-1.13-.38-1.04,0-1.7.66-1.7,1.7,0,.47.19.94.47,1.32,1.51,1.79,4.34,2.83,7.92,2.83,5.28,0,8.21-2.26,8.21-6.13,0-3.96-2.26-5.47-8.11-5.57Z"/></svg>