<?xml version="1.0" encoding="utf-8"?>
<!-- Generator: Adobe Illustrator 27.4.0, SVG Export Plug-In . SVG Version: 6.00 Build 0)  -->
<svg version="1.1" id="Layer_1" xmlns="http://www.w3.org/2000/svg" xmlns:xlink="http://www.w3.org/1999/xlink" x="0px" y="0px"
	 viewBox="0 0 185.2 79.1" style="enable-background:new 0 0 185.2 79.1;" xml:space="preserve">
<style type="text/css">
	.st0{fill:#79013F;}
</style>
<g id="Layer_2_00000029767128513881472630000003181924742077873025_">
	<g id="Layer_1-2">
		<g id="_Group_">
			<g id="_Group_2">
				<path class="st0" d="M3,49.7L6.7,49l-0.1-0.7L2.9,49c-0.6,0.2-1.3-0.2-1.5-0.8c-0.2-0.6,0.2-1.3,0.8-1.5c0.1,0,0.2,0,0.3-0.1
					l3.7-0.7l-0.1-0.7l-3.7,0.7c-1,0.2-1.7,1.1-1.5,2.1c0,0,0,0.1,0,0.1C1,49.2,1.9,49.9,3,49.7C3,49.7,3,49.7,3,49.7z"/>
			</g>
			<g id="_Group_3">
				<polygon class="st0" points="8.2,53.6 4.2,55.1 7.4,51.3 7.1,50.5 1.9,52.4 2.2,53.1 6.2,51.6 3,55.4 3.3,56.2 8.5,54.3 				"/>
			</g>
			<g id="_Group_4">
				
					<rect x="4.2" y="57.1" transform="matrix(0.8934 -0.4492 0.4492 0.8934 -25.0516 9.2594)" class="st0" width="5.5" height="0.7"/>
			</g>
			<g id="_Group_5">
				<polygon class="st0" points="12.1,60.6 7.6,61.8 10.5,58.2 10.1,57.6 6.5,62.2 6.8,62.6 12.5,61.3 				"/>
			</g>
			<g id="_Group_6">
				<polygon class="st0" points="11.3,64.7 12.9,66.5 13.3,66.1 11.8,64.2 13.1,63.1 14.7,64.9 15.2,64.4 13.1,62.1 9,65.7 11,68.1 
					11.5,67.6 9.9,65.8 				"/>
			</g>
			<g id="_Group_7">
				<path class="st0" d="M17.8,66.8l-1.5-1.2l-3.6,4.2l0.6,0.5l1.1-1.3l0.9,0.7L15,71.7l0.6,0.5l0.3-2.2c1,0.3,2.1-0.2,2.4-1.2
					C18.6,68.1,18.3,67.3,17.8,66.8z M17.4,69c-0.4,0.5-1.1,0.6-1.6,0.2c0,0,0,0-0.1,0l-0.9-0.8l1.6-1.9l0.9,0.8
					C17.8,67.7,17.9,68.5,17.4,69C17.5,69,17.5,69,17.4,69z"/>
			</g>
			<g id="_Group_8">
				<path class="st0" d="M21.7,69.4c-0.7-0.5-1.6-0.4-2.2,0.3c0,0-0.1,0.1-0.1,0.1c-0.5,0.9,0,1.6,0.7,2.3c0.4,0.4,0.7,0.8,0.4,1.4
					c-0.3,0.5-0.9,0.6-1.4,0.3c0,0,0,0,0,0c-0.6-0.3-0.8-1-0.5-1.6c0,0,0-0.1,0.1-0.1l-0.6-0.4c-0.5,0.8-0.3,2,0.5,2.5
					c0.1,0,0.1,0.1,0.2,0.1c0.7,0.6,1.8,0.4,2.3-0.3c0,0,0.1-0.1,0.1-0.1c0.6-0.9-0.1-1.7-0.7-2.4c-0.4-0.4-0.7-0.8-0.4-1.3
					c0.2-0.4,0.8-0.6,1.2-0.3c0,0,0.1,0,0.1,0.1c0.5,0.3,0.7,0.9,0.4,1.4c0,0,0,0,0,0.1l0.6,0.4c0.5-0.8,0.2-1.8-0.5-2.3
					C21.8,69.5,21.8,69.5,21.7,69.4z"/>
			</g>
			<g id="_Group_9">
				
					<rect x="21.2" y="73.4" transform="matrix(0.3944 -0.9189 0.9189 0.3944 -53.3363 66.6791)" class="st0" width="5.5" height="0.7"/>
			</g>
			<g id="_Group_10">
				<polygon class="st0" points="29.8,72.9 26.4,71.9 26.2,72.5 27.6,72.9 26.2,77.6 26.9,77.8 28.3,73.1 29.6,73.5 				"/>
			</g>
			<g id="_Group_11">
				<path class="st0" d="M31.8,73.2l-2.6,5.2l0.8,0.1l0.4-0.8l2.2,0.3l0.2,0.9l0.8,0.1l-1.2-5.7L31.8,73.2z M30.6,77.1l1.3-2.7
					l0.5,2.9L30.6,77.1z"/>
			</g>
			<g id="_Group_12">
				<path class="st0" d="M36.9,75.7c-0.5-0.2-1-0.3-1.1-0.9s0.4-0.9,1-0.9c0.6,0,1,0.4,1.1,0.9c0,0,0,0,0,0.1h0.7
					c0-0.9-0.8-1.6-1.7-1.6c-0.1,0-0.1,0-0.2,0c-0.8-0.1-1.6,0.6-1.6,1.4c0,0.1,0,0.1,0,0.2c0,1.1,0.9,1.3,1.9,1.6
					c0.5,0.1,1.1,0.3,1.1,1s-0.4,1-1.1,1c-0.6,0.1-1.2-0.4-1.3-1c0-0.1,0-0.1,0-0.2H35c0,1,0.8,1.8,1.8,1.8c0.1,0,0.1,0,0.2,0
					c0.9,0.1,1.7-0.6,1.8-1.6c0-0.1,0-0.1,0-0.2C38.8,76.3,37.8,76,36.9,75.7z"/>
			</g>
			<g id="_Group_13">
				<polygon class="st0" points="45.4,76.3 42.7,72.6 42,72.8 45.5,77.5 46,77.3 46.2,71.5 45.5,71.7 				"/>
			</g>
			<g id="_Group_14">
				
					<rect x="48.3" y="70.5" transform="matrix(0.9024 -0.4308 0.4308 0.9024 -26.8243 28.1118)" class="st0" width="0.7" height="5.5"/>
			</g>
			<g id="_Group_15">
				<polygon class="st0" points="52.6,73.6 50,69.4 49.4,69.8 52.3,74.5 54.4,73.2 54.1,72.6 				"/>
			</g>
			<g id="_Group_16">
				<polygon class="st0" points="55,65.7 57.7,68.9 53.1,67.3 52.5,67.8 56.1,72 56.6,71.6 53.8,68.3 58.5,69.9 59.1,69.4 
					55.5,65.2 				"/>
			</g>
			<g id="_Group_17">
				<polygon class="st0" points="60.8,66.6 59.5,65.5 61,63.6 60.5,63.2 59,65 57.6,63.9 59.1,62 58.6,61.6 56.6,64 60.9,67.6 
					62.9,65.2 62.4,64.8 				"/>
			</g>
			<g id="_Group_18">
				<polygon class="st0" points="61.3,57.6 64.9,59.8 60,59.7 59.6,60.4 64.3,63.3 64.7,62.7 61,60.4 65.9,60.5 66.4,59.9 61.7,57 
									"/>
			</g>
			<g id="_Group_19">
				<path class="st0" d="M67.4,53.8c-1-0.4-1.7,0.3-2.3,1c-0.4,0.4-0.7,0.8-1.3,0.6c-0.4-0.2-0.6-0.7-0.4-1.1c0,0,0-0.1,0-0.1
					c0.2-0.5,0.8-0.8,1.3-0.6c0,0,0,0,0.1,0l0.3-0.7c-0.8-0.4-1.8,0-2.2,0.8c0,0.1,0,0.1-0.1,0.2c-0.4,0.7-0.1,1.7,0.6,2.1
					c0,0,0.1,0,0.1,0.1c1,0.4,1.6-0.3,2.2-1c0.3-0.4,0.7-0.8,1.3-0.6c0.5,0.2,0.7,0.8,0.5,1.3c0,0,0,0,0,0c-0.2,0.6-0.9,0.9-1.5,0.7
					c0,0-0.1,0-0.1-0.1l-0.3,0.7c0.9,0.4,2,0,2.4-0.9c0-0.1,0.1-0.1,0.1-0.2c0.5-0.8,0.2-1.8-0.6-2.3C67.6,53.8,67.5,53.8,67.4,53.8
					z"/>
			</g>
			<g id="_Group_20">
				
					<rect x="66.6" y="48.5" transform="matrix(0.2874 -0.9578 0.9578 0.2874 -1.3555 100.6192)" class="st0" width="0.7" height="5.5"/>
			</g>
			<g id="_Group_21">
				<path class="st0" d="M69.5,45.7c-1.1-0.2-1.6,0.7-2,1.5c-0.3,0.5-0.6,0.9-1.1,0.8c-0.5-0.1-0.8-0.6-0.7-1c0,0,0-0.1,0-0.1
					c0.1-0.5,0.6-0.9,1.1-0.9c0,0,0.1,0,0.1,0l0.1-0.7c-0.9-0.2-1.8,0.3-2,1.2c0,0.1,0,0.1,0,0.2c-0.3,0.8,0.2,1.7,1,1.9
					c0.1,0,0.1,0,0.2,0.1c1,0.2,1.5-0.6,2-1.5c0.2-0.5,0.5-1,1.2-0.8c0.5,0.1,0.9,0.7,0.7,1.2c0,0,0,0,0,0.1c-0.1,0.6-0.7,1.1-1.3,1
					c-0.1,0-0.1,0-0.2,0l-0.1,0.7c1,0.2,1.9-0.4,2.2-1.3c0-0.1,0-0.1,0-0.2c0.3-0.9-0.2-1.8-1.1-2.1C69.6,45.7,69.6,45.7,69.5,45.7z
					"/>
			</g>
			<g id="_Group_22">
				<path class="st0" d="M29.6,54.5c0.1,0.1,0.3,0.1,0.4-0.1c0.1-0.1,0.1-0.3-0.1-0.4c0,0-0.1,0-0.1,0c-0.1-0.1-0.3-0.1-0.4,0.1
					c-0.1,0.1-0.1,0.3,0.1,0.4C29.5,54.5,29.6,54.5,29.6,54.5z"/>
			</g>
			<g id="_Group_23">
				<path class="st0" d="M55.9,43.7V21.7H15.2c0,8.8-0.1,17.8-0.1,26.6h24.1c0.3-1.6,2.3-3.5,1.3-5.2l-1.2-1.4
					c0.3-0.1,0.7-0.2,1-0.4l1.3,1.3c0.1,0.4,0.2,0.9,0.5,1.3c-0.6,1-1,2.1-1.2,3.2c-0.4,0.1-0.6,0.4-0.4,1.2h1.3
					c0.2-0.9,0.5-1.7,1-2.5c0.5-0.9,0.5-1.9,0-2.8c-1-0.8-1.8-1.6-2.8-2.5c-0.1,0-0.2-0.1-0.3-0.1s0.2,0.4,0.3,0.5
					c-1.9,0.8-3.7,0.5-5.7,0.3c0-0.4,0-0.9,0.2-1.3c0.3,0.3,0.4,0.6,0.5,1c0.3-0.4,0.6-0.8,0.8-1.2l1.2,1.2c0-0.9,0.2-1.9,0.5-2.8
					c0.8,0.2,1.7,0.3,2.6,0.4c0.1,0.5-0.1,1.3,0.3,1.3s0.2-1,0.2-1.3c0.5,0,0.9,0,1.4,0c0.1,0.5,0,1.2,0.4,1.2s0.2-0.9,0.2-1.2
					c0.4,0,0.8-0.1,1.2-0.2c-0.7,1.5-0.5,3.2,0.6,4.5l-1.2,4.1c-0.4,0.1-0.5,0.5-0.2,1.2h12.8C55.9,47,55.9,45.2,55.9,43.7z
					 M33.5,24.5l0.2-1.2l0.3,1.3l6.2-0.2l1.8,0.5l-1.7,0.4h-6.2l-0.2,1.3l-0.3-1.2h-0.2c0.1-0.3,0.1-0.6-0.1-0.8L33.5,24.5z
					 M30.2,37.6c0.7-0.3,1.5-0.5,2.3-0.4c0,0.2,0.1,0.3,0.1,0.5c-0.9,0-1.8,0.2-2.7,0.5C30,38,30.1,37.8,30.2,37.6z M30.1,35.5
					c1.1-0.9,2.3-1.5,3.7-1.8c0.1,0,0.1,0.1,0.2,0.1c-1.5,0.6-2.9,1.7-3.8,3.1C30.1,36.3,30.1,35.9,30.1,35.5L30.1,35.5z M30.5,37
					c0.8-1.3,2-2.3,3.5-2.9c-0.1,0.5,0.2,0.7,0.5,1l-1.1,1.1l-0.7,0.5C31.9,36.8,31.2,36.8,30.5,37z M35.7,29.2
					c0.6-0.8,0.7-1.9,0.2-2.8c0.6-0.1,1.1-0.1,1.7,0.1c0.1,0.8,0,1.6-0.5,2.2l0.3,0.5c-0.3,0.1-0.8,0.1-1.2,0.2c0,0.4,0,0.9,0.1,1.3
					c-0.4,0.1-0.7,0.2-1.1,0.2C35.2,30.3,35.4,29.7,35.7,29.2L35.7,29.2z M35.6,28.8c-0.4-0.5-0.6-1.1-0.5-1.7
					c0-0.2,0.2-0.5,0.4-0.5C35.9,26.8,36,28.5,35.6,28.8L35.6,28.8z M36.4,31.1c0.1,0.5,0.2,1.1,0.4,1.6c-0.3,0.1-0.9,0.3-1.4,0.5
					c-0.2-0.6-0.2-1.2-0.2-1.8C35.7,31.2,36,31.2,36.4,31.1L36.4,31.1z M37,33.1c0.1,0.2,0.2,0.4,0.3,0.5c-0.9,0.3-1.7,0.8-2.5,1.3
					c-0.3-0.3-0.6-0.8-0.2-1L37,33.1z M33.4,36.7l1.1,0.9c0,0.1,0,0.1,0,0.2L33,37.6c0-0.2-0.1-0.4-0.1-0.6
					C33.1,36.9,33.2,36.8,33.4,36.7L33.4,36.7z M33.7,36.5c1-1.1,2.3-1.9,3.7-2.5c0.2,0.4,0.5,0.7,0.8,1.1c-0.1,0.3-0.5,0.5-1.2,0.7
					c-0.8,0.4-1.9,1.4-2.2,1.6L33.7,36.5z M36.6,29.7l3.3-0.5c0.5,1.2,0.7,5-0.7,6.1C37.8,34.6,36.7,31.7,36.6,29.7L36.6,29.7z
					 M32.6,24.5c0.3,0.1,0.5,0.4,0.5,0.7c0,0.2-0.1,0.4-0.3,0.5c0,0.5,0.2,2,0.2,2.9l2.2,0.9c-0.2,0.3-0.3,0.7-0.3,1.1L32,29.3
					c0-1.2,0-2.4,0.1-3.6c-0.3-0.2-0.4-0.6-0.2-0.9C32.1,24.6,32.3,24.4,32.6,24.5z M31,24.9c0.1-0.1,0.3-0.1,0.4,0
					c0.1,0.1,0.1,0.3,0,0.4c-0.1,0.1-0.2,0.1-0.3,0c0,0,0,0,0,0C31,25.2,31,25,31,24.9L31,24.9z M32,31.8c0.5,0.4,1,1,1.3,1.6
					c-0.2,0-0.4,0.1-0.6,0.2c-0.5-0.9-1.3-1.6-2.2-2l0.1,0.4c0.7,0.4,1.2,1,1.6,1.7c-0.9,0.4-1.7,0.9-2.5,1.5
					c0.1-0.4-0.1-0.9,0.1-1.4c0.3-0.8,0.5-1.7-0.5-2.3c-0.2-0.1-0.5-0.2-0.7-0.2c0-0.3,0-0.5-0.1-0.8C29.9,30.5,31.1,31,32,31.8
					L32,31.8z M29.5,34.4h-0.5l-0.3-2.6c0.4,0,0.8,0.2,1,0.6C30.1,32.8,29.5,33.9,29.5,34.4L29.5,34.4z M28.8,35.8
					c-0.5,0-0.9-0.4-0.9-0.8c0.5-0.2,1.1-0.2,1.7-0.2C29.6,35.4,29.3,35.8,28.8,35.8L28.8,35.8z M28.8,34.3c-0.2,0-0.7,0.1-1,0.2
					l-0.1-0.1l-0.6-2.4c0.4-0.2,0.8-0.4,1.3-0.4L28.8,34.3z M27.1,30.1c0.3,0,0.6,0.2,0.7,0.5h0.5c0,0.3,0.1,0.5,0.1,0.8
					c-0.5,0-0.9,0.2-1.3,0.4l-0.2-0.5c-0.3-0.5-0.1-0.4-0.4-0.7c0.3,0,0.6,0.2,0.8,0.4C27.2,30.6,27.2,30.3,27.1,30.1L27.1,30.1z
					 M23.6,41.3c0.1-0.5,0.2-1.1,0.4-1.6c0.9-0.7,1.9-1.3,3-1.7c0.9,0,1.7,0,2.5,0.1c-0.1,0.3-0.1,0.5-0.1,0.8
					c-0.8-0.1-1.5-0.1-2.3-0.1c-0.9,0.3-1.7,0.7-2.4,1.3c-0.1,0.4,0,0.8,0.1,1.2C24.5,41.3,23.9,41.3,23.6,41.3L23.6,41.3L23.6,41.3
					z M25.6,42c-0.1,0.3-0.1,0.6,0,0.9c-0.3,0-0.6,0.1-0.9,0.1c0-0.5,0.1-0.9,0.4-1.3c0.5-0.6,1.3-1.2,1.8-1.7
					c0.2-0.2,0.4-0.5,0.7-0.6l3.2-0.2v-0.1c-0.3-0.1-0.5-0.1-0.8-0.1v-0.4c0.9-0.4,1.8-0.6,2.8-0.6c0,0.9,0,1.7-0.1,2.6
					c-1.2,0.2-3.3-0.5-4.7-0.4L25.6,42z M34,40.8c-0.1,0.3-0.1,0.6,0,1c0,0.3-0.6,0.4-1,0.5c-0.6,0.2-1.2,0.4-1.7,0.7
					c0.1-0.5,0.4-0.9,0.8-1.1c0.2-0.1,0.5-0.2,0.7-0.4c0.3-1.1,0.4-2.2,0.4-3.3l1.5,0.1C34.7,39.1,34.1,39.9,34,40.8z M37.5,37.3
					c-0.5,0.9-0.8,1.9-0.8,2.9l-1-1c-0.2,0.3-0.4,0.8-0.6,1.1c-0.1-0.2-0.3-0.5-0.5-0.7c0.2-0.6,0.3-1.2,0.2-1.8
					c0.7-0.6,1.4-1.1,2.2-1.6c0.7-0.3,1.2-0.5,1.4-0.8c0.2,0.1,0.3,0.3,0.5,0.4c-0.6,0.7-1.4,1.2-2.3,1.4
					C36.9,37.3,37.2,37.3,37.5,37.3L37.5,37.3z M37.7,37.9c0.1-0.3,0.2-0.5,0.3-0.8c0.4-0.2,0.8-0.4,1.1-0.8
					c0.5,0.5,0.8,1.2,0.8,1.9C39.2,38.2,38.5,38.1,37.7,37.9L37.7,37.9z M40.5,38.3c-0.2-0.9-0.5-1.7-1-2.4c0.5-0.1,1.1,0.1,1.4,0.5
					c0.5,0.5,0.8,1.2,0.9,1.9C41.7,38.3,40.9,38.3,40.5,38.3L40.5,38.3z M47.4,39.5c0.2,0.3,0.4,0.6,0.4,0.9c-0.3-0.2-0.6-0.3-1-0.3
					c0.1,0.3,0.2,0.7,0.1,1l0,0c-0.2-0.3-0.4-0.5-0.6-0.7c-0.6-0.6-0.4-1.6,0-2.5c0-0.4-0.2-0.7-0.6-0.7c-1.1,0.2-2.1,1.1-3.2,1
					c-0.4-0.8-0.6-2-1.7-2.5c1.2,0.1,2.2,0.7,2.9,1.7c1-0.8,2.1-1.8,3.5-1.4c0.5,0.1,0.8,0.5,0.9,1c0.1,0.8-0.4,1.9,0.5,2.6
					C48.2,39.9,47.8,39.4,47.4,39.5L47.4,39.5z"/>
			</g>
			<g id="_Group_24">
				<path class="st0" d="M54.6,49.1H15.2c0.1,4.8,1.9,9.3,4.9,13c8.1,9.6,23.9,9.4,31.6-0.8c2.7-3.5,4.2-7.8,4.2-12.2h-0.8
					c-0.1,2.7-0.7,5.3-1.8,7.7c-0.2,0.1-0.3,0.3-0.5,0.3c-0.8,0.3-1.3,0.3-2.1,0.6c-0.2,0.1-0.4,0.2-0.5,0.3c0.6,0,1.2-0.1,1.7-0.2
					c-0.3,0.2-0.5,0.3-0.6,0.4c-2,1.2-4.2,2.2-6.4,3.2c0.4-2,0.2-4-0.5-5.9c0.6-0.1,1.3-0.2,1.9-0.4c0.6,0.8,0.9,1.7,1,2.7
					c0.3-0.3,0.4-0.7,0.3-1.2c-0.2-0.6-0.4-1.3-0.8-1.8c0.5-0.2,1.3-0.6,1.8-0.8s1.4-0.4,1.7-0.5c-0.2-0.2-0.8,0-1.1,0
					c1.5-0.9,3.1-1.6,4.7-2.1c-0.1-0.3-0.9,0-1.2,0C53.6,50.7,54.2,50,54.6,49.1z M28.6,53.8v10.5c-0.1-0.1-0.2-0.2-0.4-0.3V53.4
					c0-0.3,0.1-0.5,0.3-0.5c0.9-0.1,2.2-0.2,3.3-0.4c1.1-0.2,2.4-0.3,3.5-0.4c0.1-0.1,0.1-0.2-0.1-0.3l-7,0.8
					c-0.2,0.1-0.4,0.2-0.4,0.3s0,0.7,0,0.8c0,3.5,0,6.8,0,10.1l-0.4-0.1c-0.1-3.3,0-7.1,0-10.6c0-0.2,0-0.5,0-0.7
					c0.1-0.1,0.4-0.1,0.4-0.1c2.4-0.2,4.9-0.6,7.4-0.9c0.1,0,0.1-0.2,0-0.3c-2.4,0.3-5.3,0.5-7.6,0.8c-0.3-0.1-0.5,0-0.7,0.2
					c-0.1,0.2-0.1,0.4-0.1,0.6c0,3.6,0.1,7.4,0,11.1h-0.3c0-3.8-0.1-8.5-0.1-11.7c0-0.3,0.2-0.6,0.5-0.7c0,0,0.1,0,0.1,0
					c3-0.3,4.9-0.3,7.3-0.7c0.7,0,1.3,0.1,1.7,0.6c0.2,0.4,0.1,0.8-0.2,1c0,0-0.1,0-0.1,0.1c-0.3,0.1-0.6,0.2-1,0.2l-5.7,0.7
					C28.8,53.3,28.6,53.5,28.6,53.8z M34.6,53.1v1.5h-0.3c-0.6-0.2-1-0.8-1-1.4C33.7,53.2,34.2,53.1,34.6,53.1L34.6,53.1z M29,54.1
					c0-0.3,0-0.5,0.3-0.5l1.3-0.1c0,1-0.4,1.6-1.6,1.6C29,54.8,29,54.5,29,54.1L29,54.1z M29.5,65.3c-0.2,0-0.4-0.1-0.5-0.3v-1.4
					c0.4,0,0.8,0.1,1.1,0.3c0.4,0.3,0.6,0.8,0.5,1.3C30.3,65.3,29.9,65.3,29.5,65.3L29.5,65.3z M31.1,65.2c0-0.6-0.2-1.2-0.7-1.6
					c-0.4-0.3-0.8-0.4-1.3-0.3L29,55.4c0.9,0.1,1.8-0.5,1.9-1.4c0-0.2,0-0.4,0-0.6l2-0.2c0,1,0.7,1.8,1.7,1.8c0,0,0,0,0.1,0l0.2,7.7
					c-1,0.1-1.7,1.1-1.6,2.1c0,0,0,0.1,0,0.1L31.1,65.2z M33.7,64.9c-0.2-0.8,0.3-1.5,1.1-1.7c0,0,0,0,0.1,0c0,0,0.1,1.5,0.1,1.5
					C34.5,64.8,34.1,64.9,33.7,64.9z M35.1,53c0.5,0,0.9-0.2,1.2-0.5c0.1,0.3,0,0.7-0.3,0.8c-0.3,0.2-0.6,0.3-0.9,0.3
					C35.1,53.5,35,53,35.1,53z M35.1,54c0.4,0,0.9-0.2,1.2-0.5v2.3c-0.1,0.5-0.6,0.6-1.2,0.7V54z M35.1,56.9
					c0.4-0.1,0.9-0.2,1.2-0.5c0.1,0.2,0.1,0.4,0,0.6c-0.3,0.3-0.8,0.4-1.2,0.4C35.1,57.2,35.1,57.1,35.1,56.9L35.1,56.9z M35.1,57.8
					c0.4,0,0.8-0.1,1.1-0.3v2l-1.1,0.6L35.1,57.8z M35.2,61.3c0.1,0,0.2,0,0.3,0.2s0.3,0.2,0.5,0.3c0.1,0.1,0.3,0.2,0.5,0.2
					c0,0.3,0,1,0,1.3s-1,0.6-1.2,0.6L35.2,61.3z M36.4,64.3c-0.3,0.2-0.7,0.3-1.1,0.3v-0.4c0.5-0.1,0.9-0.2,1.3-0.5
					C36.7,63.9,36.7,64.2,36.4,64.3L36.4,64.3z M44.5,61.3c-0.1,0.3-0.2,0.2-0.3,0.2c-0.4-0.7-0.7-1.5-0.7-2.3
					c0.3-0.3,0.7-0.6,1.1-0.7C44.8,59.4,44.8,60.4,44.5,61.3L44.5,61.3z M44.5,58c-1.9,0.8-3.3,3-5.5,3.3c0.4-0.2,0.9-0.5,1.3-0.8
					c0-0.1,0-0.1-0.2-0.1c-0.7,0.4-1.4,0.8-2.1,1l-1.3,0.3c-0.1,0-0.2,0-0.3-0.1c0.3-0.2,1.3-0.5,1.8-0.7c0.5-0.2,1-0.5,1.4-0.8
					c0-0.1,0-0.2-0.2-0.2c-0.4,0.3-0.9,0.5-1.3,0.7c-0.6,0.3-1.3,0.5-2,0.7c-0.2,0-0.4,0-0.5-0.1s0-0.1,0.2-0.2s1.2-0.4,1.7-0.7
					c0.5-0.3,1-0.5,1.5-0.9c0-0.1,0-0.2-0.2-0.1c-1,0.6-2.1,1.1-3.3,1.5c-0.2,0.1-0.4,0.1-0.5,0v-0.2l1.8-0.9c0.5-0.2,1-0.5,1.4-0.9
					l1.3-1.1v-0.2c-1,0.3-2,0.3-2.9,0v-0.1c0.5-0.1,1-0.2,1.5-0.3c0.8-0.2,1.6-0.6,2.5-0.8s2.2-0.1,3.3-0.3
					C44.4,56.5,44.6,57.3,44.5,58L44.5,58z"/>
			</g>
			<g id="_Group_25">
				<path class="st0" d="M29.9,64.3c-0.2-0.1-0.3,0-0.4,0.2s0,0.3,0.2,0.4s0.3,0,0.4-0.2S30,64.4,29.9,64.3z"/>
			</g>
			<g id="_Group_26">
				<path class="st0" d="M33.6,58.7c0-0.6-0.4-0.7-0.9-0.7c0-0.3-0.1-0.5-0.2-0.7c-0.6-0.3-1.4,0-1.2,0.8c-0.3,0.1-1,0.3-0.9,0.8
					s0.4,0.7,1,0.7c0,0.5,0.3,1,0.8,1c0.5,0,0.6-0.6,0.6-1.2C33.2,59.4,33.7,59.2,33.6,58.7z M32.5,59.1c0,0.4,0.2,1-0.3,1
					c-0.6,0.1-0.3-0.7-0.5-0.9s-0.8,0.2-1-0.3c0.1-0.6,0.6-0.5,0.9-0.6c0-0.4-0.3-0.8,0.3-0.9c0.5,0,0.3,0.5,0.3,0.8
					c0.3,0,0.9-0.1,0.9,0.4S32.8,59,32.5,59.1L32.5,59.1z"/>
			</g>
			<g id="_Group_27">
				<path class="st0" d="M39.4,33.8c-0.1-0.3-0.2-0.7-0.2-1c0.3,0,0.5-0.1,0.7-0.1l-0.1-0.5c-0.3,0.1-0.3,0.1-0.7,0.2
					c-0.1-0.3-0.1-0.6-0.2-1l0.7-0.1c0-0.2,0-0.3,0-0.5c-0.2,0-0.6,0.1-0.8,0.2c-0.1-0.4-0.1-0.7-0.1-1.1c-0.1,0-0.5,0.1-0.5,0.1
					c0.1,0.3,0.2,0.7,0.2,1c-0.2,0-0.4,0.1-0.8,0.1l0.1,0.5c0.3,0,0.7-0.1,0.8-0.1c0.1,0.4,0.1,0.7,0.2,1c-0.2,0.1-0.5,0.1-0.8,0.1
					l0.1,0.5c0.2,0,0.5-0.1,0.7-0.2c0,0.4,0,0.7,0,1.1C39,33.9,39.2,33.9,39.4,33.8z"/>
			</g>
			<g id="_Group_28">
				<path class="st0" d="M34.5,64c-0.1-0.1-0.3-0.1-0.4,0.1c-0.1,0.1-0.1,0.3,0.1,0.4c0,0,0,0,0.1,0C34.6,64.6,34.8,64.1,34.5,64z"
					/>
			</g>
			<g id="_Group_29">
				<path class="st0" d="M28.2,32.9c0.1-0.1,0-0.3-0.1-0.4c-0.1,0-0.2-0.1-0.3,0c-0.1,0.1-0.1,0.3,0,0.4C28,33,28.2,33,28.2,32.9z"
					/>
			</g>
			<g id="_Group_30">
				<path class="st0" d="M34,54c0.1,0,0.3,0,0.3-0.2c0-0.1,0-0.3-0.2-0.3C33.8,53.4,33.7,54,34,54z"/>
			</g>
			<g id="_Group_31">
				<polygon class="st0" points="5.9,32.6 0.8,29.8 0.6,30.5 4.7,32.7 0.1,33.3 0,34.1 5.8,33.1 				"/>
			</g>
			<g id="_Group_32">
				
					<rect x="3.6" y="25.7" transform="matrix(0.2741 -0.9617 0.9617 0.2741 -24.4752 24.5321)" class="st0" width="0.7" height="5.5"/>
			</g>
			<g id="_Group_33">
				<polygon class="st0" points="8.2,24.7 7.6,24.5 7,26.2 2.4,24.4 2.2,25.1 7.3,27.1 				"/>
			</g>
			<g id="_Group_34">
				<polygon class="st0" points="9,23.1 5.2,21.1 10.2,20.9 10.6,20.2 5.7,17.6 5.4,18.2 9.1,20.2 4.2,20.4 3.8,21.1 8.7,23.7 				
					"/>
			</g>
			<g id="_Group_35">
				
					<rect x="9.1" y="14.2" transform="matrix(0.5761 -0.8173 0.8173 0.5761 -9.8104 14.9312)" class="st0" width="0.7" height="5.5"/>
			</g>
			<g id="_Group_36">
				<path class="st0" d="M13.1,16.7l-0.4-0.8l1.5-1.7l0.8,0.3l0.5-0.6l-5.4-2.2l-0.4,0.4l2.9,5.1L13.1,16.7z M10.8,12.8l2.7,1.2
					l-1.2,1.4L10.8,12.8z"/>
			</g>
			<g id="_Group_37">
				<path class="st0" d="M17.5,12.4c0.8-0.6,0.9-1.8,0.3-2.6c0,0,0-0.1-0.1-0.1l-2.4-2.9l-0.6,0.5l2.4,2.9c0.5,0.5,0.5,1.2,0,1.7
					s-1.2,0.5-1.7,0c0,0-0.1-0.1-0.1-0.1L13,8.9l-0.6,0.5l2.4,2.9C15.5,13,16.7,13.1,17.5,12.4C17.5,12.5,17.5,12.4,17.5,12.4z"/>
			</g>
			<g id="_Group_38">
				<path class="st0" d="M20.2,7.3c0.5-0.1,1.1-0.2,1.4,0.3c0.2,0.5,0,1.1-0.4,1.3c0,0,0,0,0,0c-0.5,0.4-1.3,0.2-1.6-0.3
					c0,0-0.1-0.1-0.1-0.1L18.9,9c0.5,0.9,1.6,1.2,2.4,0.8c0.1,0,0.1-0.1,0.2-0.1c0.8-0.4,1.2-1.4,0.8-2.2c0-0.1,0-0.1-0.1-0.1
					c-0.6-0.9-1.5-0.7-2.5-0.5c-0.5,0.1-1.1,0.2-1.4-0.3c-0.2-0.4-0.1-0.9,0.3-1.2c0,0,0.1,0,0.1,0c0.5-0.3,1.1-0.2,1.4,0.3
					c0,0,0,0,0,0.1l0.6-0.4c-0.4-0.8-1.4-1.1-2.2-0.6c-0.1,0-0.1,0.1-0.2,0.1c-0.8,0.4-1.1,1.3-0.7,2c0,0,0,0.1,0.1,0.1
					C18.4,7.7,19.3,7.6,20.2,7.3z"/>
			</g>
			<g id="_Group_39">
				<path class="st0" d="M28.3,6.7c1-0.2,1.6-1.3,1.4-2.3c0,0,0-0.1,0-0.1l-1-3.6L28,0.9l1,3.6c0.2,0.6-0.1,1.3-0.7,1.6
					C27.7,6.3,27,6,26.7,5.4c0-0.1-0.1-0.2-0.1-0.2l-1-3.6L25,1.8l1,3.6C26.2,6.4,27.3,7,28.3,6.7C28.3,6.7,28.3,6.7,28.3,6.7z"/>
			</g>
			<g id="_Group_40">
				<polygon class="st0" points="32,5.8 31.7,1.5 34.5,5.6 35.3,5.5 34.8,0 34.1,0.1 34.5,4.3 31.6,0.3 30.8,0.3 31.3,5.8 				"/>
			</g>
			<g id="_Group_41">
				
					<rect x="34.6" y="2.5" transform="matrix(5.982905e-02 -0.9982 0.9982 5.982905e-02 32.2567 39.9752)" class="st0" width="5.5" height="0.7"/>
			</g>
			<g id="_Group_42">
				<polygon class="st0" points="41,6.1 43.9,1.1 43.2,0.9 40.9,4.9 40.3,0.4 39.6,0.2 40.5,6 				"/>
			</g>
			<g id="_Group_43">
				<polygon class="st0" points="46.5,7.8 46.7,7.2 44.5,6.4 45.1,4.7 47.3,5.6 47.5,4.9 45.3,4.1 45.9,2.4 48.2,3.2 48.4,2.6 
					45.5,1.6 43.6,6.8 				"/>
			</g>
			<g id="_Group_44">
				<path class="st0" d="M48.3,8.7l0.9-1.5l1,0.6l0.1,2.1l0.7,0.4L50.8,8c0.8,0.1,1.6-0.2,1.9-0.9c0.5-0.9,0.2-2-0.6-2.5
					c0,0-0.1,0-0.1,0l-1.7-1l-2.7,4.9L48.3,8.7z M50.7,4.5l1.1,0.6c0.6,0.3,0.8,1,0.4,1.6c0,0,0,0,0,0.1c-0.3,0.6-1,0.8-1.6,0.5
					c0,0,0,0-0.1,0l-1-0.6L50.7,4.5z"/>
			</g>
			<g id="_Group_45">
				<path class="st0" d="M52.7,9.3c-0.7,0.8-0.6,1.9,0.2,2.6c0,0,0.1,0.1,0.1,0.1c0.7,0.7,1.7,0.7,2.4,0c0,0,0.1-0.1,0.1-0.1
					c0.7-0.9,0.2-1.7-0.4-2.5c-0.3-0.5-0.6-0.9-0.2-1.4c0.3-0.4,0.9-0.4,1.2-0.1c0,0,0,0,0.1,0.1c0.4,0.3,0.5,1,0.2,1.4
					c0,0,0,0,0,0.1L57,9.9c0.6-0.7,0.5-1.7-0.2-2.3c0,0-0.1-0.1-0.1-0.1c-0.6-0.6-1.6-0.6-2.2,0c0,0-0.1,0.1-0.1,0.1
					c-0.7,0.8-0.2,1.6,0.4,2.4c0.3,0.4,0.6,0.9,0.2,1.4c-0.4,0.4-1,0.5-1.4,0.1c0,0,0,0,0,0c-0.5-0.4-0.7-1.1-0.3-1.6
					c0,0,0.1-0.1,0.1-0.1L52.7,9.3z"/>
			</g>
			<g id="_Group_46">
				<rect x="55" y="12.1" transform="matrix(0.713 -0.7012 0.7012 0.713 7.8773 44.1013)" class="st0" width="5.5" height="0.7"/>
			</g>
			<g id="_Group_47">
				<polygon class="st0" points="57.8,16.6 58.3,17.2 62.1,14.1 63,15.2 63.5,14.8 61.3,12 60.8,12.4 61.7,13.6 				"/>
			</g>
			<g id="_Group_48">
				<polygon class="st0" points="61.4,21.8 61.9,21.5 60.7,19.4 62.2,18.5 63.5,20.5 64,20.2 62.8,18.2 64.3,17.2 65.6,19.3 
					66.1,18.9 64.5,16.3 59.8,19.1 				"/>
			</g>
			<g id="_Group_49">
				<polygon class="st0" points="62.5,24 62.8,24.7 67.2,22.7 67.8,24 68.4,23.7 66.9,20.4 66.3,20.7 66.9,22 				"/>
			</g>
			<g id="_Group_50">
				<path class="st0" d="M63.6,26.8h0.9l0.7,2.1l-0.7,0.5l0.2,0.7l4.7-3.5l-0.2-0.5l-5.8-0.1L63.6,26.8z M68.2,26.8l-2.4,1.7
					l-0.6-1.7H68.2z"/>
			</g>
			<g id="_Group_51">
				<path class="st0" d="M69,30.3c-1,0.2-1.2,1.1-1.3,2.1c-0.1,0.5-0.2,1.1-0.8,1.2c-0.5,0.1-1.1-0.3-1.1-0.9c0,0,0,0,0-0.1
					c-0.2-0.6,0.2-1.3,0.8-1.4c0.1,0,0.1,0,0.2,0l-0.1-0.7c-1,0.1-1.7,1-1.5,2c0,0.1,0,0.1,0,0.2c0.1,0.9,0.9,1.6,1.8,1.5
					c0,0,0,0,0.1,0c1.1-0.2,1.2-1.2,1.3-2.1c0.1-0.6,0.2-1.1,0.7-1.2c0.5-0.1,0.9,0.3,1,0.7c0,0,0,0.1,0,0.1
					c0.1,0.5-0.2,1.1-0.8,1.2c0,0,0,0,0,0l0.1,0.7c0.9-0.1,1.5-1,1.4-1.9c0,0,0-0.1,0-0.1c-0.1-0.8-0.8-1.5-1.7-1.4
					C69.1,30.3,69,30.3,69,30.3z"/>
			</g>
			<g id="_Group_52">
				<path class="st0" d="M29.7,17.6V13h-0.6c0,0.6-0.2,0.8-1,0.8v0.5H29v3.4H29.7L29.7,17.6z"/>
			</g>
			<g id="_Group_53">
				<polygon class="st0" points="36.1,17.6 36.8,17.6 38.8,13 35.9,13 35.9,13.5 37.9,13.5 				"/>
			</g>
			<g id="_Group_54">
				<path class="st0" d="M41.3,17.6l1.4-2.2c0.2-0.3,0.3-0.6,0.3-0.9c0-0.9-0.7-1.6-1.6-1.6c-0.9,0-1.6,0.7-1.6,1.6s0.7,1.6,1.6,1.6
					c0,0,0,0,0,0c0.1,0,0.2,0,0.3-0.1l-1,1.6C40.6,17.6,41.3,17.6,41.3,17.6z M41.4,15.5c-0.6,0-1-0.4-1-1s0.4-1,1-1s1,0.4,1,1
					S41.9,15.5,41.4,15.5z"/>
			</g>
			<g id="_Group_55">
				<circle class="st0" cx="25.3" cy="15.4" r="0.7"/>
			</g>
			<g id="_Group_56">
				<circle class="st0" cx="45.7" cy="15.4" r="0.8"/>
			</g>
			<g id="_Group_57">
				<circle class="st0" cx="3" cy="39.7" r="0.8"/>
			</g>
			<g id="_Group_58">
				<circle class="st0" cx="68.5" cy="39.7" r="0.8"/>
			</g>
			<path class="st0" d="M33.4,14.4c-0.4,0-0.8,0.2-1.1,0.5v-1.4h2.2V13h-2.8v2.6h0.6c0.2-0.5,0.8-0.7,1.3-0.5
				c0.4,0.2,0.6,0.5,0.6,0.9c0,0.6-0.4,1-0.9,1.1c0,0,0,0-0.1,0c-0.4,0-0.8-0.2-0.9-0.6h-0.6c0.1,0.7,0.7,1.2,1.4,1.2
				c0.9,0,1.6-0.7,1.6-1.5c0,0,0-0.1,0-0.1c0.1-0.8-0.4-1.4-1.2-1.5C33.6,14.4,33.5,14.4,33.4,14.4z"/>
		</g>
		<g id="_Group_59">
			<rect x="84.5" y="0.4" class="st0" width="1" height="78.7"/>
		</g>
		<g id="_Group_60">
			<path class="st0" d="M98,21.7h3.2l2.7,9l2.7-9h3.2l-4.3,12.8h-3.1L98,21.7z"/>
			<path class="st0" d="M110.3,23.2c0-1,0.7-1.7,1.7-1.8s1.7,0.7,1.8,1.7s-0.7,1.7-1.7,1.8c0,0,0,0,0,0
				C111.1,24.9,110.3,24.1,110.3,23.2C110.3,23.2,110.3,23.2,110.3,23.2z M110.6,25.6h2.8v8.8h-2.8V25.6z"/>
			<path class="st0" d="M115.7,21.7h2.8v12.8h-2.8V21.7z"/>
			<path class="st0" d="M120.8,25.6h2.8v1.3c0.6-1,1.7-1.6,2.9-1.5c2.1,0,3.2,1.2,3.2,3.6v5.5h-2.8v-4.5c0-1.5-0.4-2.2-1.6-2.2
				s-1.7,0.7-1.7,2.1v4.6h-2.8V25.6z"/>
			<path class="st0" d="M131.6,23.2c0-1,0.7-1.7,1.7-1.8s1.7,0.7,1.8,1.7c0,1-0.7,1.7-1.7,1.8c0,0,0,0,0,0
				C132.4,24.9,131.6,24.1,131.6,23.2C131.6,23.2,131.6,23.2,131.6,23.2z M131.9,25.6h2.8v8.8h-2.8V25.6z"/>
			<path class="st0" d="M137,31.1v-5.5h2.8v4.8c0,1.2,0.4,1.9,1.5,1.9s1.7-0.8,1.7-2v-4.7h2.8v8.8H143v-1.3c-0.5,1-1.6,1.6-2.8,1.5
				C138.1,34.7,137,33.4,137,31.1z"/>
			<path class="st0" d="M147.4,31.8h2.8c0,0.6,0.6,1,1.4,1c0.6,0,1-0.3,1-0.8c0-0.4-0.3-0.7-0.6-0.8l-2.2-0.5
				c-1.3-0.2-2.2-1.3-2.2-2.5c0-1.6,1.4-2.8,3.8-2.8c2.6,0,3.9,1.1,3.9,2.8h-2.8c0-0.6-0.5-1-1.2-1s-1,0.3-1,0.7s0.3,0.7,0.8,0.8
				l2.1,0.6c1.2,0.2,2.2,1.2,2.2,2.5c0,1.8-1.4,3-3.9,3C149,34.8,147.4,33.5,147.4,31.8z"/>
			<path class="st0" d="M99,52.1v-8.5h2.9V52c0,1.2,1,2.2,2.2,2.2s2.2-1,2.2-2.2l0,0v-8.3h3v8.5c0,3-2,4.7-5.2,4.7S99,55.1,99,52.1z
				"/>
			<path class="st0" d="M111.4,47.6h2.8v1.3c0.6-1,1.7-1.6,2.9-1.5c2.1,0,3.2,1.2,3.2,3.6v5.5h-2.8v-4.5c0-1.5-0.4-2.2-1.6-2.2
				s-1.7,0.7-1.7,2.1v4.6h-2.8L111.4,47.6L111.4,47.6z"/>
			<path class="st0" d="M122.3,45.2c0-1,0.7-1.7,1.7-1.8s1.7,0.7,1.8,1.7c0,1-0.7,1.7-1.7,1.8c0,0,0,0,0,0
				C123,46.9,122.3,46.1,122.3,45.2C122.3,45.2,122.3,45.2,122.3,45.2z M122.6,47.6h2.8v8.8h-2.8V47.6z"/>
			<path class="st0" d="M126.5,47.6h3.1l2,5.5l2-5.5h3.1l-3.8,8.8h-2.5L126.5,47.6z"/>
			<path class="st0" d="M146,52.8h-6.5c0,1,0.8,1.8,1.9,1.8c0.1,0,0.1,0,0.2,0c0.9,0,1.4-0.3,1.6-0.8h2.8c-0.3,1.7-2.1,2.9-4.4,2.9
				c-3,0-4.9-1.7-4.9-4.7c-0.2-2.4,1.7-4.5,4.1-4.7c0.2,0,0.4,0,0.7,0c2.8,0,4.6,1.7,4.6,4.2C146.1,52,146,52.4,146,52.8z
				 M143.3,51.1c0.1-0.9-0.6-1.8-1.5-1.8c-0.1,0-0.2,0-0.3,0c-1-0.1-1.9,0.6-2,1.6c0,0.1,0,0.2,0,0.2H143.3z"/>
			<path class="st0" d="M147.6,47.6h2.8v1.8c0.2-1.2,1.3-2,2.4-2c0.2,0,0.5,0,0.7,0.1v2.6c-0.3,0-0.6-0.1-0.8-0.1
				c-1.4,0-2.3,0.8-2.3,3v3.4h-2.8V47.6z"/>
			<path class="st0" d="M154.4,53.8h2.8c0,0.6,0.6,1,1.4,1c0.6,0,1-0.3,1-0.8c0-0.4-0.3-0.7-0.6-0.8l-2.2-0.5
				c-1.3-0.2-2.2-1.3-2.2-2.5c0-1.7,1.4-2.8,3.8-2.8c2.6,0,3.9,1.1,3.9,2.8h-2.8c0-0.6-0.5-1-1.2-1s-1,0.3-1,0.7s0.3,0.7,0.8,0.8
				l2.1,0.6c1.2,0.2,2.2,1.2,2.2,2.5c0,1.8-1.4,3-3.9,3C155.9,56.8,154.4,55.5,154.4,53.8z"/>
			<path class="st0" d="M163.8,45.2c0-1,0.7-1.7,1.7-1.8s1.7,0.7,1.8,1.7c0,1-0.7,1.7-1.7,1.8c0,0,0,0,0,0
				C164.6,46.9,163.8,46.1,163.8,45.2C163.8,45.2,163.8,45.2,163.8,45.2z M164.1,47.6h2.8v8.8h-2.8V47.6z"/>
			<path class="st0" d="M174.9,54.2v2.2c-0.6,0.1-1.2,0.2-1.9,0.2c-1.3,0-3.1-0.3-3.1-3.2v-3.5h-1.4v-2.2h1.4V45h2.8v2.6h2v2.2h-2
				v2.9c0,1.3,0.5,1.5,1.2,1.5C174.2,54.3,174.5,54.3,174.9,54.2z"/>
			<path class="st0" d="M185.2,47.6v8.6c0.1,1.2-0.4,2.4-1.2,3.2c-0.9,0.7-2.1,1.1-3.2,1c-1.2,0.1-2.3-0.2-3.3-0.9
				c-0.7-0.6-1.1-1.4-1.1-2.3h2.8c0.1,0.8,0.5,1.2,1.5,1.2s1.7-0.6,1.7-2V55c-0.6,1-1.7,1.6-2.8,1.5c-2.2,0-3.3-1.5-3.3-3.7v-5.1
				h2.8v4.7c0,1.1,0.4,1.9,1.6,1.9s1.7-0.9,1.7-2.2v-4.4H185.2z"/>
		</g>
	</g>
</g>
</svg>
