<?xml version="1.0" encoding="UTF-8"?>
<svg id="Layer_1" data-name="Layer 1" xmlns="http://www.w3.org/2000/svg" viewBox="0 0 85.04 39.48">
  <defs>
    <style>
      .cls-1 {
        fill: #1d1e1c;
      }
    </style>
  </defs>
  <path d="m78.95,15.72c.79,0,1.44-.65,1.44-1.44s-.65-1.44-1.44-1.44-1.44.65-1.44,1.44.65,1.44,1.44,1.44Zm-9.77-2.75h-2.6v4.37h-1.97v2.53h1.97v4.67c0,2.87,1.99,5.01,4.84,5.16h.4v-2.58c-.19,0-.34-.02-.34-.02-1.37-.12-2.3-1.15-2.3-2.57v-4.66h2.64v-2.54h-2.64v-4.37Zm-8.66,16.46h2.62v-12.09h-2.62v12.09Zm1.31-16.59c-.79,0-1.44.65-1.44,1.44s.65,1.44,1.44,1.44,1.44-.65,1.44-1.44-.65-1.44-1.44-1.44Zm23.2,11.04c.01-2.01-.67-3.81-1.93-5.07-1.13-1.13-2.61-1.76-4.17-1.76-3.35,0-6.08,2.84-6.08,6.34s2.72,6.3,6.19,6.3c2.79,0,4.87-1.47,5.71-4.05,0,0,0,0,0,0h-2.84c-.59,1.04-1.58,1.6-2.87,1.6-1.49,0-3.23-1.04-3.48-2.99h9.47v-.37Zm-9.28-2.05c.59-1.53,1.99-2.33,3.19-2.33,1.38,0,2.61.94,3.14,2.33h-6.33Zm-23.16-4.49h-3.53v-6.5h-2.64v12.67c0,3.4,2.77,6.17,6.17,6.17s6.17-2.77,6.17-6.17-2.77-6.17-6.17-6.17Zm0,9.7c-1.95,0-3.53-1.58-3.53-3.53v-3.53h3.53c1.95,0,3.53,1.58,3.53,3.53s-1.55,3.53-3.53,3.53Z"/>
  <path class="cls-1" d="m29.62,0H9.86C4.44,0,0,4.44,0,9.86v29.62h29.62c5.42,0,9.86-4.44,9.86-9.86V9.86c0-5.42-4.44-9.86-9.86-9.86Zm-9.03,32.01c-4.81,0-8.73-3.92-8.73-8.73V5.99h3.96v8.56h4.77c4.81,0,8.73,3.92,8.73,8.73s-3.92,8.73-8.73,8.73Zm0-3.96c-2.63,0-4.77-2.14-4.77-4.77v-4.77h4.77c2.63,0,4.77,2.14,4.77,4.77s-2.14,4.77-4.77,4.77Z"/>
</svg>