<?xml version="1.0" encoding="UTF-8"?>
<svg id="Layer_1" data-name="Layer 1" xmlns="http://www.w3.org/2000/svg" viewBox="0 0 131.23 37.92">
  <path d="m45.95,28.2h3.97v-6.65h7.42v-3.52h-7.42v-4.44h9.54v-3.65h-13.51v18.27Z"/>
  <path d="m61.3,11.24c0,1.04.93,1.96,2.12,1.96s2.12-.91,2.12-1.96-.93-1.96-2.12-1.96-2.12.91-2.12,1.96Zm.27,16.96h3.71v-13.31h-3.71v13.31Z"/>
  <path d="m68.19,28.2h3.71v-7.05c0-2.09,1.46-3.52,3.18-3.52s2.78,1.02,2.78,3v7.57h3.71v-8.09c0-3.68-1.99-5.61-5.3-5.61-1.56,0-2.54.57-3.26,1.12-.4.31-.74.68-.98,1.1h-.13v-1.83h-3.71v13.31Z"/>
  <path d="m83.83,19.06c0,5.48,4.24,9.66,10.2,9.66,3.92,0,6.28-1.83,7.71-3.65.82-1.07,1.43-2.3,1.83-3.65h-4.11c-.24.68-.61,1.28-1.09,1.83-.82.91-2.15,1.83-4.34,1.83-3.6,0-5.96-2.32-5.96-6s2.52-6,5.96-6c2.12,0,3.42.84,4.24,1.64.45.47.82,1.02,1.06,1.62h4.11c-.34-1.28-.93-2.43-1.72-3.44-1.32-1.72-3.71-3.47-7.68-3.47-5.96,0-10.2,4.18-10.2,9.66Z"/>
  <path d="m105.01,21.54c0,3.91,3.15,7.05,7.28,7.05,2.91,0,4.64-1.17,5.69-2.35.61-.7,1.03-1.49,1.32-2.35h-3.97c-.16.29-.37.55-.64.78-.5.39-1.22.78-2.41.78-1.72,0-3.15-1.44-3.44-3.13h10.6v-.78c0-3.89-2.91-7.05-7.15-7.05s-7.28,3.13-7.28,7.05Zm3.97-1.44c.4-1.33,1.59-2.48,3.31-2.48s2.91,1.17,3.18,2.48h-6.49Z"/>
  <path d="m121.68,28.2h3.71V9.93h-3.71v18.27Z"/>
  <path d="m127.52,28.2h3.71V9.93h-3.71v18.27Z"/>
  <path d="m21.21,26.72v-4.44c.88-.1,1.76-.24,2.63-.45,2.87-.66,5.59-1.89,7.99-3.6.61-.43,1.19-.9,1.75-1.39v-5.18c0-.1,0-.2-.01-.3-2.28,2.08-4.92,3.73-7.79,4.86-2.87,1.13-5.91,1.72-8.99,1.75v-4.42c2.52-.03,5.02-.52,7.37-1.44,2.55-1,4.88-2.5,6.85-4.4l.05-.05L19.02.61c-1.38-.81-3.09-.81-4.47,0L2.19,7.85c-1.35.79-2.19,2.24-2.19,3.81v14.6c0,1.57.83,3.02,2.19,3.81l12.37,7.24c1.38.81,3.09.81,4.47,0l12.37-7.24c1.35-.79,2.19-2.24,2.19-3.81v-3.87c-2.67,1.76-5.63,3.03-8.74,3.75-1.2.28-2.41.47-3.63.58Z"/>
</svg>