<?xml version="1.0" encoding="UTF-8"?>
<svg id="Layer_1" data-name="Layer 1" xmlns="http://www.w3.org/2000/svg" viewBox="0 0 102.91 36.23">
  <path d="m0,36.23h36.22V0H0v36.23ZM22.77,7.94h7.48c-.55,16.64-6.89,22.75-11.11,15.32,3.97-6.44,3.64-15.32,3.64-15.32Zm-13.08-3.08c1.7,0,3.08,1.38,3.08,3.08s-1.38,3.08-3.08,3.08-3.08-1.38-3.08-3.08h0c0-1.7,1.38-3.08,3.08-3.08h0Zm3.76,9.76c1.45,10.86,5.54,13.79,7.36,14.56.07.03.1.11.07.18-.02.05-.08.09-.13.09h-5.76c-6.92,0-9.01-13.58-9.01-14.83h7.47Z"/>
  <rect x="44.05" y="6.65" width="1.91" height="10.02"/>
  <path d="m53.61,10.11c-.26-.27-.58-.48-.93-.62-.38-.15-.78-.22-1.19-.21-.28,0-.57.04-.83.13-.22.07-.44.16-.64.27-.21.11-.41.25-.59.4l-.32-.72h-1.35v7.31h1.83v-4.05c0-.48.14-.86.42-1.15.28-.29.64-.44,1.09-.44.44,0,.81.15,1.09.44s.42.68.42,1.15v4.05h1.83v-4.29c0-.44-.07-.88-.21-1.29-.13-.36-.34-.7-.6-.98Z"/>
  <path d="m56.39,14.12c0,.37.06.73.18,1.08.11.31.29.59.51.83.22.23.48.42.78.53.32.12.65.19.99.18.21,0,.42-.02.62-.08.09-.02.17-.04.25-.08v-1.59s-.08.04-.13.05c-.05.01-.1.02-.14.02-.07,0-.14,0-.21,0-.32,0-.57-.09-.75-.28s-.28-.44-.28-.76v-3.02h1.59v-1.67h-1.59v-1.75h-1.59v1.03c0,.58-.29.87-.87.87h-.48v1.51h1.11v3.1Z"/>
  <path d="m66.89,10.31c-.32-.33-.69-.59-1.11-.77-.88-.37-1.88-.36-2.76.02-.43.19-.83.47-1.16.81-.34.34-.61.74-.79,1.18-.39.93-.39,1.98,0,2.91.19.44.46.84.79,1.18.33.34.73.61,1.16.8.44.2.92.3,1.41.29.39,0,.78-.07,1.15-.21.34-.13.67-.31.96-.53.27-.21.51-.46.72-.74.19-.25.33-.53.44-.83h-1.91c-.09.11-.2.21-.32.29-.13.08-.27.15-.42.19-.2.06-.41.08-.61.08-.48,0-.85-.12-1.13-.37-.27-.24-.46-.55-.54-.91h5.09c.01-.07.02-.15.03-.24.01-.07.02-.15.03-.23.01-.08.02-.16.02-.24,0-.52-.09-1.03-.28-1.52-.17-.44-.43-.84-.76-1.18Zm-4.21,2.15c.08-.39.28-.75.58-1.02.3-.28.69-.41,1.17-.41.48,0,.87.14,1.17.41.3.27.5.63.58,1.02h-3.5Z"/>
  <path d="m71.1,12.77c0-.48.14-.86.42-1.15.28-.29.64-.44,1.09-.44.09,0,.18,0,.26.02.08.01.15.02.2.03.06.01.12.02.18.03v-1.91l-.16-.03c-.05-.01-.11-.02-.17-.03-.07-.01-.15-.02-.22-.02-.25,0-.5.04-.74.14-.2.08-.38.18-.55.31-.17.12-.33.27-.46.43l-.32-.8h-1.35v7.31h1.83v-3.89Z"/>
  <path d="m80.3,10.11c-.26-.27-.58-.48-.93-.62-.38-.15-.78-.22-1.19-.21-.28,0-.57.04-.83.13-.22.07-.44.16-.64.27-.21.11-.41.25-.59.4l-.32-.72h-1.35v7.31h1.83v-4.05c0-.48.14-.86.42-1.15.28-.29.64-.44,1.09-.44.44,0,.81.15,1.09.44s.42.68.42,1.15v4.05h1.83v-4.29c0-.44-.07-.88-.21-1.29-.13-.36-.34-.7-.6-.98Z"/>
  <path d="m88.51,10.31c-.32-.33-.69-.59-1.11-.77-.88-.37-1.88-.36-2.76.02-.43.19-.83.47-1.16.81-.34.34-.61.74-.8,1.18-.39.93-.39,1.98,0,2.91.19.44.46.84.79,1.18.33.34.73.61,1.16.8.44.2.92.3,1.41.29.39,0,.78-.07,1.15-.21.34-.13.66-.31.95-.53.27-.21.51-.46.72-.74.19-.25.33-.53.44-.83h-1.91c-.09.11-.2.21-.32.29-.13.08-.27.15-.42.19-.2.06-.41.08-.61.08-.48,0-.85-.12-1.13-.37-.27-.24-.46-.55-.54-.91h5.09c.01-.07.02-.15.03-.24.01-.07.02-.15.03-.23.01-.08.02-.16.02-.24,0-.52-.09-1.03-.28-1.52-.17-.44-.43-.84-.75-1.18Zm-4.21,2.15c.08-.39.28-.75.58-1.02.3-.28.69-.41,1.17-.41.48,0,.87.14,1.17.41.3.27.5.63.58,1.02h-3.5Z"/>
  <path d="m93.19,7.6h-1.59v1.03c0,.58-.29.87-.87.87h-.48v1.51h1.11v3.1c0,.37.06.73.18,1.08.11.31.29.59.51.83.22.23.48.42.78.53.32.12.65.19.99.18.21,0,.42-.02.62-.08.09-.02.17-.04.25-.08v-1.59s-.08.04-.13.05c-.05.01-.09.02-.14.02-.07,0-.14,0-.21,0-.32,0-.57-.09-.76-.28-.19-.19-.28-.44-.28-.76v-3.02h1.59v-1.67h-1.59v-1.75Z"/>
  <path d="m102.62,11.56c-.19-.44-.46-.84-.79-1.18-.33-.34-.73-.61-1.16-.8-.9-.39-1.92-.39-2.81,0-.43.19-.83.46-1.16.8-.34.34-.61.74-.79,1.18-.39.93-.39,1.98,0,2.91.19.44.46.84.79,1.18.33.34.73.61,1.16.8.9.39,1.92.39,2.81,0,.43-.19.83-.46,1.16-.8.34-.34.61-.74.79-1.18.39-.93.39-1.98,0-2.91h0Zm-2.06,2.9c-.35.36-.78.54-1.3.54s-.95-.18-1.3-.54c-.35-.36-.52-.84-.52-1.45,0-.6.18-1.09.52-1.45.35-.36.78-.54,1.3-.54s.95.18,1.3.54c.35.36.53.84.53,1.45s-.18,1.09-.53,1.45Z"/>
  <polygon points="47.26 27.32 45.51 22.27 43.6 22.27 46.39 29.58 48.14 29.58 50.92 22.27 49.01 22.27 47.26 27.32"/>
  <path d="m52.83,19.25c-.59-.01-1.07.45-1.09,1.03-.01.59.45,1.07,1.03,1.09.59.01,1.07-.45,1.09-1.03,0-.29-.1-.57-.31-.78-.19-.2-.45-.31-.72-.31Z"/>
  <rect x="51.87" y="22.27" width="1.83" height="7.31"/>
  <polygon points="60.54 23.78 60.54 22.27 55.06 22.27 55.06 24.02 58.24 24.02 55.06 28.07 55.06 29.58 60.7 29.58 60.7 27.83 57.36 27.83 60.54 23.78"/>
  <path d="m63.01,19.25c-.59-.01-1.07.45-1.09,1.03-.01.59.45,1.07,1.03,1.09.59.01,1.07-.45,1.09-1.03,0-.29-.1-.57-.31-.78-.19-.2-.45-.31-.72-.31Z"/>
  <rect x="62.05" y="22.27" width="1.83" height="7.31"/>
  <path d="m66.63,19.25c-.59-.01-1.07.45-1.09,1.03-.01.59.45,1.07,1.03,1.09.59.01,1.07-.45,1.09-1.03,0-.29-.1-.57-.31-.78-.19-.2-.45-.31-.72-.31Z"/>
  <path d="m65.68,29.5c0,.32-.09.57-.28.76-.19.19-.44.28-.76.28-.12,0-.24,0-.37-.03-.04,0-.08-.03-.11-.05v1.59c.08.03.17.06.25.08.2.06.41.08.62.08.34,0,.68-.06.99-.18.3-.12.56-.3.78-.53.22-.24.39-.52.51-.83.13-.35.19-.71.18-1.08v-7.31h-1.83v7.23Z"/>
  <path d="m74.33,23c-.26-.26-.57-.46-.91-.6-.36-.15-.75-.22-1.14-.21-.42,0-.84.06-1.23.2-.34.12-.66.3-.95.53-.26.22-.47.48-.63.78-.15.3-.25.62-.29.95h1.83c.03-.15.1-.28.19-.4.1-.11.21-.2.34-.27.14-.08.34-.13.58-.13.36,0,.65.11.87.33.22.22.33.54.33.94-.84,0-1.53.06-2.09.18s-1,.29-1.34.51c-.34.22-.58.48-.72.78-.15.31-.22.65-.21.99,0,.6.21,1.1.63,1.49.42.39,1.03.58,1.83.58.29,0,.58-.04.86-.12.23-.07.45-.16.65-.28.2-.11.38-.25.56-.4l.32.72h1.35v-4.54c0-.39-.07-.78-.21-1.14-.14-.34-.34-.65-.6-.91Zm-1.02,3.72c0,.44-.15.81-.44,1.09-.29.28-.68.42-1.15.42-.28,0-.5-.08-.68-.24s-.27-.35-.27-.55c0-.15.03-.3.1-.43.07-.13.19-.24.37-.33.18-.09.44-.16.77-.21.43-.05.87-.08,1.3-.07v.31Z"/>
</svg>