<?xml version="1.0" encoding="UTF-8"?>
<svg id="Layer_1" data-name="Layer 1" xmlns="http://www.w3.org/2000/svg" viewBox="0 0 132.92 26.41">
  <path d="m6.73,10.52c-2.62-1.48-2.64-2.17-2.64-4.21,0-1.48.22-3.18,1.97-3.18s1.93,1.57,1.93,3.26v1.1h3.65v-1.22C11.64,1.99,9.9,0,6.15,0S.4,2.26.4,6.91c0,3.91,1.46,5.27,4.6,7.21,3.12,1.96,3.4,2.64,3.4,5.7,0,2.9-1.25,3.51-2.29,3.51-1.63,0-2.41-1.09-2.41-3.34v-1.46H0v1.38c0,4.44,1.9,6.51,5.98,6.51s6.15-2.43,6.15-7.24c0-4.46-1.12-6.21-5.4-8.66Z"/>
  <path d="m23.85.04c-4.18,0-6.39,2.53-6.39,7.32v11.74c0,4.99,1.94,7.32,6.1,7.32,4.47,0,6.55-2.35,6.55-7.4V7.36C30.11,2.5,28.01.04,23.85.04Zm2.5,19.5c0,2.45-.82,3.59-2.58,3.59s-2.54-1.19-2.54-3.55V6.95c0-2.96,1.38-3.59,2.54-3.59,1.73,0,2.58,1.16,2.58,3.55v12.63Z"/>
  <path d="m45.12,13.7c.12-.07.24-.15.37-.23.65-.44,2.64-1.32,2.64-5.75v-1.01c0-4.33-1.95-6.27-6.31-6.27h-5.54v25.57h3.69v-11.6h1.69s3.32,11.6,3.32,11.6h3.67l-3.69-12.22.16-.09Zm-.72-5.78c0,2.98-.81,3.52-3.22,3.52h-1.2V3.41h1.41c2.52,0,3.02,1.37,3.02,3.59v.93Z"/>
  <rect x="73.68" y=".44" width="3.69" height="25.57"/>
  <path d="m56.26.44l-2.3,25.57h3.69l.63-6.73h5.13l.63,6.73h3.69L65.41.44h-9.15Zm2.3,15.48l1.13-12.4h2.29l1.13,12.4h-4.55Z"/>
  <path d="m93.76,7.05v10.99h-.02l-1.29-4.47h0s-1.49-5.24-1.49-5.24l-.14-.54h0l-1.92-7.35h-4.39v25.57h3.41v-7.15c0-.72,0-.94,0-1.6,0-1.26,0-2.43,0-3.53v-5.91h.17l3.06,11.24h0s1.75,6.96,1.75,6.96h4.23V.44h-3.37v6.61Z"/>
  <polygon points="107.84 14.81 113.77 14.81 113.77 11.44 107.84 11.44 107.84 3.85 114.09 3.85 114.09 .44 104.15 .44 104.15 26.01 114.18 26.01 114.23 22.64 107.84 22.64 107.84 14.81"/>
  <path d="m129.55.44v17.6h-.02l-1.29-4.47h0s-1.49-5.24-1.49-5.24l-.14-.54h0l-1.92-7.35h-4.39v25.57h3.41v-7.15c0-.72,0-.94,0-1.6,0-1.26,0-2.43,0-3.53v-5.91h.17l3.06,11.24h0s1.75,6.96,1.75,6.96h4.23V.44h-3.37Z"/>
</svg>