<?xml version="1.0" encoding="UTF-8"?>
<svg id="Layer_1" data-name="Layer 1" xmlns="http://www.w3.org/2000/svg" viewBox="0 0 143.25 28.92">
  <path d="m11.04,8.95c.71,0,1.1.39,1.1,1.03s-.39,1.03-1.1,1.03h-3.81v9.55c0,.77-.45,1.23-1.16,1.23s-1.1-.45-1.1-1.23v-9.55H1.1c-.71,0-1.1-.39-1.1-1.03s.39-1.03,1.1-1.03h9.94Z"/>
  <path d="m18.85,10.04v10.52c0,.77-.39,1.23-1.1,1.23s-1.16-.45-1.16-1.23v-10.52c0-.77.39-1.23,1.16-1.23.65,0,1.1.45,1.1,1.23Z"/>
  <path d="m38.66,10.37v10.2c0,.77-.45,1.23-1.16,1.23s-1.1-.45-1.1-1.23v-7.74h-.06l-3.61,5.87c-.26.39-.58.65-1.03.65s-.84-.26-1.03-.65l-3.74-5.94h-.06v7.87c0,.71-.39,1.23-1.1,1.23s-1.1-.45-1.1-1.23v-10.2c0-.9.52-1.55,1.48-1.55.58,0,1.1.26,1.48.9l4,6.58,4.13-6.65c.39-.71.9-.9,1.48-.9.9,0,1.42.65,1.42,1.55Z"/>
  <path d="m54.02,19.6c.71,0,1.1.39,1.1,1.03s-.45,1.03-1.1,1.03h-8.39c-.77,0-1.23-.45-1.23-1.23v-10.33c0-.77.45-1.23,1.23-1.23h8.39c.71,0,1.1.39,1.1,1.03s-.45,1.03-1.1,1.03h-7.36v3.23h5.94c.71,0,1.1.39,1.1,1.03s-.39,1.03-1.1,1.03h-5.94v3.29l7.36.06h0Z"/>
  <path d="m69.96,16.82c.65,0,1.1.32,1.1.97,0,.58-.45,1.03-1.1,1.03h-.9v1.74c0,.77-.45,1.16-1.1,1.16-.71,0-1.1-.45-1.1-1.16v-1.74h-5.94c-.71,0-1.16-.45-1.16-1.1,0-.39.13-.65.39-.97l6.45-7.36c.32-.39.71-.58,1.16-.58.77,0,1.29.58,1.29,1.42v6.58h.9Zm-3.1,0v-4.78l-4.2,4.78h4.2Z"/>
  <path d="m97.78,8.04c-.06-.52-.52-4.39-2.45-6.13-3.61-3.23-13.94-.9-18.07,6.13-2.97,5.03-3.03,12.97,2.07,17.23,3.36,2.78,8.71,3.74,12.33,1.61,2.71-1.61,3.74-5.74,5.74-13.94.26-1.1.65-2.78.39-4.91Zm-5.23,2.45l-4.78,10.26c-.26.65-.77,1.03-1.42,1.03s-1.16-.39-1.48-1.03l-4.78-10.26c-.06-.26-.13-.45-.13-.65,0-.71.52-1.23,1.23-1.23.45,0,.9.32,1.1.77l4.07,8.91,4.07-8.84c.19-.58.58-.84,1.1-.84.71,0,1.23.52,1.16,1.16,0,.26,0,.45-.13.71Z"/>
  <g>
    <path d="m110.56,10.88h-4.07v3.81h4.13c1.42,0,2.13-.65,2.13-1.94s-.77-1.94-2.19-1.87Z"/>
    <path d="m118.88,13.27c-.19-1.61-.84-6.65-4.91-10.26-1.16-1.03-4-3.55-6.97-2.9-3.29.71-4.71,4.84-5.74,7.81-1.48,4.26-4.26,12.13.39,17.23,2.9,3.16,8.26,4.84,12.33,2.9,6.26-3.1,5.1-13.17,4.91-14.78Zm-8.07,3.61h-4.32v3.36c0,.77-.45,1.29-1.23,1.29s-1.23-.45-1.23-1.29v-10.39c0-.77.52-1.29,1.29-1.29h5.49c2.84,0,4.39,1.48,4.39,4.13s-1.55,4.2-4.39,4.2Z"/>
  </g>
  <path d="m143.22,13.79c-.32-4.58-2.9-10.58-8.07-12.78-5.03-2.13-10,.52-12.33,4.07-4.65,7.23-.13,21.17,6.39,23.49,6.2,2.13,14.59-5.68,14.01-14.78Zm-11.36,8.13c-2.45,0-4.39-.71-5.42-1.94-.19-.26-.32-.58-.32-.9,0-.71.45-1.16,1.16-1.16.32,0,.58.06.77.26.97.97,2.32,1.42,4,1.42,1.87,0,2.97-.71,2.97-1.87s-1.16-1.36-3.29-1.42c-3.94-.06-5.42-1.1-5.42-3.61s2.19-4.2,5.55-4.2c1.94,0,3.55.52,4.71,1.55.26.26.39.58.39.97,0,.65-.45,1.1-1.03,1.1-.45,0-.71-.13-.9-.26-.97-.71-2-1.1-3.36-1.1-1.74,0-2.9.77-2.9,1.87,0,1.03,1.03,1.29,3.16,1.29,4,.06,5.55,1.1,5.55,3.81s-2,4.2-5.62,4.2Z"/>
</svg>