<?xml version="1.0" encoding="UTF-8"?>
<svg id="Layer_1" data-name="Layer 1" xmlns="http://www.w3.org/2000/svg" viewBox="0 0 96.5 36.19">
  <defs>
    <style>
      .cls-1 {
        fill-rule: evenodd;
      }
    </style>
  </defs>
  <path class="cls-1" d="m1.38,22.73l1.68-.34-.06-.32-1.68.34c-.31.06-.61-.1-.68-.43-.07-.33.16-.59.46-.65l1.68-.34-.06-.32-1.68.34c-.47.09-.79.51-.69,1.03.11.52.57.79,1.04.69"/>
  <polyline class="cls-1" points="3.77 24.53 1.94 25.2 3.38 23.46 3.26 23.12 .88 23.99 .99 24.3 2.83 23.63 1.39 25.37 1.51 25.71 3.89 24.84 3.77 24.53"/>
  <polyline class="cls-1" points="4.25 25.56 1.98 26.7 2.14 27 4.4 25.87 4.25 25.56"/>
  <polyline class="cls-1" points="5.52 27.74 3.49 28.26 4.81 26.63 4.62 26.34 2.97 28.46 3.1 28.66 5.7 28.03 5.52 27.74"/>
  <polyline class="cls-1" points="5.16 29.59 5.88 30.41 6.1 30.22 5.38 29.4 6.01 28.85 6.73 29.68 6.95 29.48 6.02 28.41 4.11 30.07 5.04 31.14 5.26 30.95 4.55 30.12 5.16 29.59"/>
  <path class="cls-1" d="m8.13,30.56l-.68-.57-1.63,1.93.25.21.52-.62.4.34-.14.94.29.24.15-1c.34.13.71.02.95-.26.3-.35.3-.88-.11-1.22m-.14,1c-.2.23-.52.3-.78.08l-.43-.36.73-.86.43.36c.25.21.24.55.05.78Z"/>
  <path class="cls-1" d="m9.95,31.78c-.37-.22-.8-.18-1.03.21-.25.41.02.73.33,1.07.16.18.33.38.18.64-.14.23-.4.27-.65.12-.3-.18-.38-.48-.2-.78l-.28-.17c-.27.46-.11.94.32,1.2.4.24.87.19,1.11-.22.26-.43-.04-.77-.33-1.1-.17-.19-.32-.38-.18-.61.12-.21.36-.24.59-.1.25.15.31.39.16.65l.28.17c.23-.4.11-.84-.3-1.08"/>
  <polyline class="cls-1" points="10.29 34.86 10.6 34.99 11.6 32.67 11.28 32.53 10.29 34.86"/>
  <polyline class="cls-1" points="13.65 33.34 12.08 32.88 11.99 33.17 12.62 33.35 11.99 35.49 12.31 35.59 12.94 33.44 13.57 33.63 13.65 33.34"/>
  <path class="cls-1" d="m14.54,33.48l-1.2,2.39.34.05.18-.37,1.02.14.08.4.34.05-.53-2.63-.24-.03m-.54,1.79l.59-1.24.23,1.35-.82-.11Z"/>
  <path class="cls-1" d="m16.88,34.65c-.25-.07-.48-.15-.49-.41,0-.24.17-.39.44-.4.29-.01.47.16.49.46h.33c-.02-.48-.36-.77-.84-.75-.43.02-.77.28-.75.73.02.48.42.6.86.72.23.06.49.14.5.44.01.27-.19.44-.49.45-.34.01-.58-.2-.59-.55h-.33c.02.55.41.86.92.84.47-.02.83-.31.82-.78-.02-.5-.45-.63-.87-.75"/>
  <polyline class="cls-1" points="20.79 34.89 19.55 33.21 19.22 33.31 20.84 35.45 21.07 35.37 21.12 32.69 20.79 32.8 20.79 34.89"/>
  <polyline class="cls-1" points="21.57 32.46 22.66 34.74 22.97 34.59 21.88 32.31 21.57 32.46"/>
  <polyline class="cls-1" points="24.05 33.66 22.87 31.77 22.59 31.94 23.92 34.09 24.91 33.48 24.75 33.23 24.05 33.66"/>
  <polyline class="cls-1" points="25.14 30.06 26.42 31.54 24.28 30.8 24 31.03 25.65 32.95 25.9 32.74 24.63 31.26 26.76 32 27.04 31.76 25.39 29.84 25.14 30.06"/>
  <polyline class="cls-1" points="27.84 30.47 27.21 29.95 27.92 29.11 27.69 28.92 26.99 29.76 26.35 29.23 27.06 28.39 26.83 28.2 25.91 29.29 27.85 30.92 28.77 29.83 28.54 29.64 27.84 30.47"/>
  <polyline class="cls-1" points="28.03 26.35 29.71 27.37 27.44 27.32 27.25 27.64 29.41 28.95 29.58 28.67 27.91 27.65 30.18 27.7 30.37 27.39 28.21 26.07 28.03 26.35"/>
  <path class="cls-1" d="m30.86,24.61c-.46-.19-.76.14-1.05.47-.17.2-.34.37-.58.27-.22-.09-.28-.32-.18-.57.11-.27.34-.36.62-.25l.13-.3c-.43-.18-.84,0-1.03.44-.16.39-.07.81.35.99.44.19.72-.12,1.02-.47.16-.19.33-.38.61-.27.25.1.32.36.21.63-.13.32-.42.44-.74.31l-.13.3c.5.21.94-.02,1.14-.48.18-.43.07-.89-.37-1.07"/>
  <polyline class="cls-1" points="29.37 23.23 31.79 23.95 31.89 23.63 29.46 22.9 29.37 23.23"/>
  <path class="cls-1" d="m31.79,20.89c-.49-.09-.72.3-.93.68-.12.23-.25.43-.51.38-.24-.05-.34-.26-.29-.52.06-.29.26-.43.56-.38l.06-.32c-.46-.08-.82.18-.91.65-.08.42.1.81.55.9.47.09.68-.27.9-.67.11-.21.25-.44.54-.39.27.05.39.29.33.58-.06.34-.32.52-.66.45l-.06.32c.53.1.92-.21,1.02-.71.09-.46-.11-.88-.58-.97"/>
  <path class="cls-1" d="m13.56,24.92c.15.07.24-.16.07-.22-.13-.05-.25.15-.07.22"/>
  <path class="cls-1" d="m25.59,19.98v-10.03H6.96c0,4.04-.05,8.14-.03,12.17h11.01c.13-.73,1.06-1.58.62-2.4l-.53-.63c.13-.04.31-.1.44-.17l.59.58c.03.2.13.44.21.57-.26.43-.47,1.07-.55,1.48-.19.05-.28.2-.17.57h.61c.03-.45.29-.72.45-1.12.2-.5.22-1.02.01-1.28-.45-.35-.81-.73-1.28-1.13-.05-.01-.11-.06-.16-.05-.05.01.08.19.15.22-.85.36-1.7.25-2.59.15,0-.21,0-.37.07-.57.12.14.17.23.25.45.12-.11.27-.41.36-.54l.54.55c.03-.36.11-1.01.23-1.26.38.09.79.15,1.18.19.05.22-.04.59.16.59.2,0,.1-.44.09-.59.18.03.43.02.63.02.05.21.01.55.19.54.18,0,.08-.39.07-.56.18-.03.36-.03.57-.09-.33.68-.2,1.59.27,2.05l-.54,1.87c-.19.06-.22.23-.1.56h5.88c0-.59,0-1.44,0-2.13m-10.24-8.77l.09-.56.15.57,2.86-.09.8.22-.79.2h-2.85s-.08.6-.08.6l-.16-.54h-.1c.03-.13.05-.21-.03-.38l.11-.02Zm-1.52,5.99c.32-.15.75-.21,1.07-.18.02.09.03.14.04.22-.41.03-.82.08-1.22.23,0-.1.06-.18.11-.27Zm-.07-.96c.39-.31,1.09-.74,1.68-.85.05,0,.06.03.11.03-.85.37-1.38.88-1.74,1.4-.03-.19-.03-.4-.05-.59Zm.21.69c.33-.57.92-1.04,1.61-1.33-.03.22.07.32.21.47l-.51.51-.33.25c-.33-.01-.6.03-.97.09Zm2.38-3.56c.28-.36.32-.91.07-1.28.23-.07.53-.05.77.03.04.31.03.67-.21,1.03l.15.22c-.14.03-.38.06-.57.09-.01.17.02.44.05.59-.1.03-.37.09-.51.09.01-.26.07-.53.25-.77Zm-.07-.21c-.19-.16-.26-.54-.23-.78,0-.09.09-.23.2-.22.19.09.23.87.03,1Zm.37,1.06c.04.25.11.51.19.74-.14.05-.43.16-.63.21-.06-.23-.11-.57-.1-.83.2-.03.35-.07.54-.11Zm.27.92c.03.09.08.15.13.25-.41.14-.78.37-1.13.57-.12-.12-.27-.35-.09-.43l1.09-.39Zm-1.63,1.67l.52.39s0,.05,0,.07c-.19-.01-.5-.04-.69-.05-.01-.09-.03-.15-.03-.27.07-.06.13-.11.21-.15Zm.15-.12c.41-.47.94-.85,1.67-1.14.09.17.25.34.37.49-.06.13-.22.24-.54.33-.39.2-.86.63-1.02.71l-.49-.4Zm1.33-3.09l1.5-.23c.21.55.31,2.28-.3,2.79-.67-.34-1.18-1.66-1.2-2.56Zm-1.86-2.38c.13.02.21.17.21.3-.01.09-.05.18-.13.25.02.25.07.92.1,1.31l1.01.41c-.09.17-.13.33-.15.49l-1.31-.57c0-.55.02-1.11.04-1.65-.25-.19-.13-.57.22-.53Zm-.69.18s.09-.07.16-.02c.05.05.05.11.02.17-.04.05-.11.06-.17,0-.06-.04-.05-.11-.01-.16Zm.46,3.14c.23.19.44.43.61.71-.05,0-.15.03-.27.07-.19-.32-.59-.79-1-.9l.07.17c.33.21.53.41.73.79-.37.15-.77.37-1.13.69.03-.19-.05-.39.04-.63.15-.37.21-.77-.23-1.04-.1-.05-.21-.07-.32-.08-.01-.12-.01-.25-.03-.37.47-.02,1.15.25,1.53.58Zm-1.14,1.2h-.21s-.13-1.2-.13-1.2c.23.02.4.13.45.29.11.2-.15.68-.12.91Zm-.36.65c-.26,0-.37-.17-.41-.38.18-.05.56-.13.77-.09.04.27-.09.47-.35.47Zm0-.65c-.1.02-.3.05-.44.09l-.03-.03-.27-1.1c.11-.11.42-.17.58-.17l.15,1.22Zm-.75-1.96c.12.03.26.09.33.23,0,0,.1-.01.21-.02.03.13.03.22.04.35-.17.02-.48.08-.61.19l-.1-.21c-.14-.23-.07-.18-.18-.31.1,0,.25.08.38.16-.03-.15-.05-.27-.07-.39Zm-1.61,5.16c.07-.25.09-.53.19-.74.37-.29.89-.59,1.37-.79.41-.01.79,0,1.17.06-.03.11-.05.23-.06.37-.35-.03-.69-.05-1.07-.05-.36.12-.77.33-1.1.6-.05.2.03.35.06.55-.13.01-.39,0-.55.01h-.01Zm.89.31c-.07.12-.03.29,0,.43-.11.02-.25.03-.43.05,0-.25.08-.45.16-.61.25-.26.58-.55.81-.77.09-.09.19-.21.32-.29l1.46-.1v-.05c-.09-.06-.26-.05-.37-.05l.02-.17c.39-.18.84-.23,1.26-.25,0,.36.01.83-.05,1.18-.53.1-1.52-.21-2.14-.2l-1.06.84Zm3.87-.57c-.04.3,0,.33,0,.43.01.14-.27.17-.45.21-.27.09-.52.18-.79.33.03-.27.19-.39.37-.52.09-.05.21-.1.31-.19.13-.34.13-.99.14-1.52.15.01.52.04.69.05.05.45-.21.82-.26,1.21Zm1.6-1.6c-.22.39-.33.8-.35,1.33l-.43-.43c-.07.13-.17.35-.27.5-.05-.09-.15-.23-.22-.34.1-.29.13-.45.09-.83.14-.12.61-.52,1.02-.72.34-.12.57-.23.63-.38.05.05.15.12.23.18-.14.25-.64.56-1.08.65.07.05.25.05.38.05Zm.1.29c.01-.08.09-.24.15-.37.2-.09.37-.21.51-.35.19.17.35.59.38.88-.33-.01-.69-.07-1.04-.16Zm1.28.17c-.06-.35-.21-.73-.44-1.1.2-.07.49.06.65.22.23.21.35.55.43.88-.12,0-.47,0-.63,0Zm3.16.59c.11.13.15.23.18.41-.11-.09-.26-.14-.44-.15.03.13.11.23.05.47h0c-.09-.15-.19-.21-.27-.31-.26-.28-.17-.72-.02-1.14,0-.17-.09-.34-.28-.34-.5.08-.94.5-1.44.46-.17-.36-.27-.93-.75-1.14.67.08,1.1.44,1.33.79.43-.37.96-.82,1.58-.65.22.07.35.23.39.47.04.38-.19.87.21,1.2-.16.09-.35-.14-.51-.09Z"/>
  <path class="cls-1" d="m24.97,22.48H6.94c.07,2.36.98,4.4,2.26,5.94,3.69,4.39,10.93,4.32,14.47-.35,1.22-1.7,1.87-3.31,1.91-5.59h-.35c0,1.17-.4,2.71-.8,3.52-.09.08-.13.1-.25.15-.37.15-.57.14-.97.27-.08.04-.19.07-.21.13.27,0,.55-.05.8-.11-.12.07-.21.15-.29.19-.9.53-1.95,1.06-2.91,1.44.19-.67.07-1.84-.25-2.7.29-.05.6-.1.88-.18.29.27.41.89.43,1.25.13-.17.14-.28.15-.53-.04-.23-.19-.57-.35-.83.24-.11.57-.29.83-.39.26-.1.63-.17.77-.25-.09-.07-.36-.02-.51,0,.62-.42,1.44-.75,2.18-.98-.03-.13-.41,0-.54,0,.34-.26.64-.64.79-.99m-11.87,2.13v4.8c-.05-.06-.11-.09-.19-.15v-4.81c.01-.14.04-.23.13-.24.43-.04,1.02-.1,1.5-.17.5-.07,1.11-.13,1.62-.2.04-.05.03-.09-.03-.14l-3.22.37c-.09.04-.17.11-.17.15,0,.08-.01.31-.01.37,0,1.6,0,3.1-.02,4.6l-.19-.04c-.03-1.5-.01-3.25-.01-4.88,0-.09-.01-.25.01-.31.03-.06.19-.06.19-.06,1.12-.11,2.26-.27,3.39-.41.05-.02.05-.09-.02-.13-1.1.12-2.41.22-3.48.35-.04,0-.2.03-.25.1-.05.07-.05.23-.05.28,0,1.66.06,3.38.02,5.06h-.15c0-1.72-.03-3.88-.03-5.35,0-.15.05-.29.28-.31,1.38-.12,2.24-.16,3.35-.3.33,0,.61.03.77.27.12.14.05.41-.17.5-.13.06-.27.08-.43.1-.87.1-1.75.2-2.62.3-.13.02-.19.11-.23.24Zm2.75-.32v.7h-.15c-.27-.05-.47-.36-.47-.65.18-.03.42-.03.62-.05Zm-2.59.45c0-.12.02-.22.15-.23.13-.01.37-.03.57-.04,0,.48-.19.71-.73.71,0-.14,0-.27,0-.44Zm.24,5.14c-.09,0-.16-.04-.21-.15v-.64c.19,0,.35.05.49.16.15.13.25.31.25.59-.17.02-.37.04-.54.04Zm.72-.05c0-.25-.1-.57-.33-.73-.15-.11-.41-.18-.6-.16l-.03-3.6c.53,0,.91-.25.89-.89l.89-.1c0,.44.33.83.81.83l.1,3.53c-.59.17-.77.49-.73,1.01l-1,.11Zm1.19-.15c-.01-.36.05-.63.53-.77.02,0,.03.69.03.7-.17.04-.39.05-.57.07Zm.63-5.43c.15-.03.42-.07.55-.25.07.15,0,.28-.13.37-.11.07-.32.15-.43.15,0-.05-.02-.27,0-.28Zm0,.47c.26-.04.4-.09.56-.22v1.04c-.06.21-.29.27-.56.34v-1.16Zm.02,1.33c.2-.04.39-.09.56-.24.06.08.07.19,0,.27-.17.12-.29.17-.55.2-.01-.05-.02-.17-.01-.23Zm.01.41c.16,0,.38-.07.5-.15v.91s-.47.27-.47.27l-.03-1.04Zm.06,1.6c.06.01.09,0,.12.09.02.05.14.07.25.12.06.09.14.09.21.11,0,.12,0,.45,0,.58,0,.17-.45.27-.56.26v-1.16Zm.53,1.39c-.08.07-.4.16-.51.16v-.17c.21-.03.43-.11.6-.25.05.12-.04.22-.09.26Zm3.73-1.37c-.03.12-.09.11-.15.08-.2-.32-.32-.7-.33-1.08.11-.11.3-.26.51-.34.05.38.05.96-.03,1.34Zm0-1.51c-.89.36-1.49,1.39-2.54,1.53.25-.12.45-.27.57-.35,0-.05-.02-.06-.07-.06-.37.2-.61.37-.96.46l-.6.12s-.09.01-.13-.06c.15-.08.61-.21.85-.33.25-.11.42-.23.65-.39.02-.04,0-.1-.08-.08-.21.13-.39.21-.61.32-.33.15-.58.25-.9.34-.09.02-.19,0-.21-.05.03-.02-.01-.04.1-.09.14-.07.53-.2.79-.34.26-.13.47-.25.68-.41.02-.05,0-.09-.08-.06-.52.31-.92.48-1.5.69-.08.03-.19.05-.25.02v-.14l.77-.41c.23-.11.41-.23.65-.41l.59-.52v-.09c-.41.07-.86.19-1.34,0v-.06c.23-.06.47-.09.69-.15.37-.1.72-.27,1.14-.37.45-.07,1.03-.07,1.53-.13.13.26.21.57.23,1.02Z"/>
  <path class="cls-1" d="m13.67,29.42c-.19-.06-.27.19-.11.27.17.06.27-.19.11-.27"/>
  <path class="cls-1" d="m15.37,26.85c0-.26-.17-.31-.4-.33,0-.13-.03-.27-.11-.34-.28-.13-.63.02-.54.38-.15.03-.44.13-.42.39.02.26.17.33.47.32.01.22.15.47.37.43.22-.03.27-.28.27-.54.17,0,.38-.09.35-.31m-.51.21c0,.19.07.44-.12.47-.27.03-.15-.3-.22-.41-.11-.05-.38.07-.44-.13.03-.27.26-.24.43-.27-.02-.19-.13-.35.15-.42.23.02.14.21.16.35.15,0,.4-.03.41.19s-.21.15-.37.22Z"/>
  <path class="cls-1" d="m18.01,15.48c-.03-.15-.07-.33-.09-.47.15-.02.24-.03.33-.05l-.04-.25c-.12.03-.15.03-.31.07-.03-.15-.05-.28-.09-.47.12-.01.23-.02.33-.03,0-.07-.01-.15-.02-.23-.08.02-.26.04-.35.07-.03-.17-.05-.29-.06-.49-.05.02-.21.03-.25.05.05.17.07.31.1.47-.1.01-.2.03-.35.05l.03.22c.12-.02.3-.07.36-.07.03.19.05.31.07.46-.11.03-.24.04-.35.05l.05.25c.18-.04.23-.05.33-.09,0,.15.03.37.01.49.11,0,.22-.03.29-.05"/>
  <path class="cls-1" d="m15.78,29.27c-.16-.08-.27.13-.13.22.17.08.26-.16.13-.22"/>
  <path class="cls-1" d="m12.91,15.04c.03-.07.01-.12-.03-.19-.06-.01-.08-.05-.14,0-.03.07-.01.14.01.2.07.04.15.05.16-.01"/>
  <path class="cls-1" d="m15.56,24.72c.13.03.19-.17.06-.21-.15-.06-.19.19-.06.21"/>
  <polyline class="cls-1" points="2.69 14.93 .35 13.61 .29 13.95 2.13 14.95 .06 15.25 0 15.59 2.65 15.16 2.69 14.93"/>
  <polyline class="cls-1" points="3.1 13.21 .66 12.52 .57 12.84 3.01 13.54 3.1 13.21"/>
  <polyline class="cls-1" points="3.77 11.32 3.5 11.21 3.2 11.99 1.11 11.18 .99 11.49 3.36 12.4 3.77 11.32"/>
  <polyline class="cls-1" points="4.12 10.57 2.4 9.64 4.66 9.57 4.84 9.25 2.61 8.05 2.46 8.33 4.18 9.27 1.91 9.34 1.74 9.66 3.96 10.86 4.12 10.57"/>
  <polyline class="cls-1" points="5.48 8.34 3.41 6.88 3.22 7.15 5.28 8.61 5.48 8.34"/>
  <path class="cls-1" d="m5.99,7.64l-.2-.35.68-.77.38.16.23-.26-2.48-1.02-.16.18,1.32,2.33.23-.26m-1.06-1.8l1.25.56-.55.62-.7-1.18Z"/>
  <path class="cls-1" d="m8.01,5.69c.41-.34.42-.87.11-1.24l-1.1-1.31-.25.21,1.1,1.31c.2.24.2.59-.05.8-.26.22-.6.15-.79-.09l-1.1-1.31-.25.21,1.1,1.31c.31.37.83.45,1.24.11"/>
  <path class="cls-1" d="m9.26,3.35c.24-.06.49-.11.65.15.14.23.04.48-.21.63-.3.18-.6.1-.78-.2l-.28.17c.28.46.77.55,1.2.29.4-.24.59-.67.34-1.08-.26-.43-.7-.34-1.12-.24-.25.06-.49.1-.62-.13-.12-.21-.04-.43.19-.56.25-.15.49-.09.65.17l.28-.17c-.24-.4-.68-.5-1.09-.25-.37.22-.54.61-.31,1,.25.41.65.33,1.1.22"/>
  <path class="cls-1" d="m12.95,3.06c.52-.14.74-.62.62-1.08l-.46-1.65-.32.09.46,1.65c.08.31-.06.62-.38.71-.32.09-.6-.11-.68-.41l-.46-1.65-.32.09.46,1.65c.13.46.57.76,1.08.61"/>
  <polyline class="cls-1" points="14.65 2.64 14.49 .7 15.78 2.55 16.14 2.52 15.94 0 15.61 .03 15.77 1.98 14.48 .12 14.11 .15 14.32 2.67 14.65 2.64"/>
  <polyline class="cls-1" points="17.34 .06 17 .04 16.84 2.57 17.18 2.59 17.34 .06"/>
  <polyline class="cls-1" points="18.74 2.8 20.09 .49 19.74 .42 18.73 2.25 18.46 .17 18.12 .11 18.51 2.76 18.74 2.8"/>
  <polyline class="cls-1" points="21.27 3.58 21.37 3.3 20.35 2.92 20.63 2.16 21.65 2.54 21.76 2.26 20.73 1.88 21.02 1.11 22.04 1.49 22.15 1.21 20.81 .72 19.94 3.09 21.27 3.58"/>
  <path class="cls-1" d="m22.08,3.98l.4-.7.45.26.04.95.33.19-.04-1.01c.36.07.71-.11.89-.43.23-.4.13-.92-.33-1.18l-.77-.44-1.25,2.2.29.16m1.1-1.94l.49.28c.29.16.34.49.19.76-.15.27-.46.39-.75.22l-.49-.28.56-.98Z"/>
  <path class="cls-1" d="m24.12,4.27c-.34.42-.24.91.15,1.23.37.29.83.31,1.13-.06.31-.39.07-.77-.17-1.14-.14-.22-.26-.42-.1-.63.15-.19.39-.18.59-.02.23.18.26.43.07.67l.26.21c.29-.37.22-.81-.14-1.11-.33-.27-.76-.29-1.05.06-.3.38-.08.73.18,1.11.14.2.28.42.09.66-.17.21-.43.21-.66.02-.27-.21-.31-.53-.09-.8l-.26-.21"/>
  <polyline class="cls-1" points="25.67 6.7 27.48 4.93 27.24 4.68 25.44 6.46 25.67 6.7"/>
  <polyline class="cls-1" points="26.47 7.6 26.67 7.85 28.42 6.46 28.83 6.97 29.06 6.79 28.04 5.51 27.8 5.69 28.21 6.2 26.47 7.6"/>
  <polyline class="cls-1" points="28.09 9.97 28.34 9.82 27.77 8.89 28.47 8.46 29.04 9.4 29.29 9.24 28.72 8.31 29.43 7.88 30 8.81 30.25 8.66 29.51 7.44 27.35 8.76 28.09 9.97"/>
  <polyline class="cls-1" points="28.58 10.99 28.71 11.29 30.75 10.37 31.02 10.97 31.29 10.85 30.62 9.35 30.35 9.48 30.62 10.07 28.58 10.99"/>
  <path class="cls-1" d="m29.12,12.26h.41s.31.98.31.98l-.33.24.11.33,2.15-1.6-.07-.23-2.68-.06.11.33m2.09.01l-1.12.79-.25-.79h1.37Z"/>
  <path class="cls-1" d="m31.55,13.87c-.47.09-.54.5-.59.95-.03.24-.07.5-.36.56-.27.05-.46-.13-.52-.42-.06-.34.11-.6.46-.66l-.06-.32c-.53.1-.78.53-.69,1.03.08.46.43.78.89.7.49-.09.56-.54.62-.97.03-.26.08-.49.34-.54.24-.04.41.12.46.37.05.29-.09.49-.38.55l.06.32c.46-.09.7-.47.62-.93-.08-.42-.39-.72-.83-.64"/>
  <path class="cls-1" d="m13.58,8.05v-2.11h-.26c0,.25-.07.35-.45.35v.22h.43v1.54h.28"/>
  <polyline class="cls-1" points="16.52 8.05 16.81 8.05 17.75 5.94 16.44 5.94 16.44 6.19 17.36 6.19 16.52 8.05"/>
  <path class="cls-1" d="m18.89,8.05l.63-1.01c.08-.12.13-.26.13-.42,0-.38-.28-.71-.72-.71s-.72.33-.72.72.28.72.73.72c.04,0,.11,0,.13-.03l-.48.74h.32m.03-.95c-.27,0-.45-.21-.45-.47s.18-.47.45-.47.45.21.45.47-.17.47-.45.47Z"/>
  <path class="cls-1" d="m11.59,7.37c.19,0,.34-.15.34-.34s-.15-.34-.34-.34-.34.15-.34.34.15.34.34.34"/>
  <path class="cls-1" d="m21.26,7.05c0-.19-.15-.34-.34-.34s-.34.15-.34.34.15.34.34.34.34-.15.34-.34"/>
  <path class="cls-1" d="m1.04,18.15c0,.19.15.34.34.34s.34-.15.34-.34-.15-.34-.34-.34-.34.15-.34.34"/>
  <path class="cls-1" d="m31.1,17.9c-.14.12-.16.34-.03.48.12.14.34.16.48.03.14-.12.16-.34.03-.48-.12-.14-.34-.16-.48-.03"/>
  <path d="m15.28,6.61c-.21,0-.38.07-.49.21v-.64h1.01v-.25h-1.27v1.17h.26c.08-.19.21-.27.44-.27.26,0,.42.18.42.48s-.18.49-.46.49c-.22,0-.38-.11-.41-.28h-.26c.04.31.29.53.66.53.44,0,.73-.32.73-.75s-.25-.7-.66-.7"/>
  <rect x="38.67" y=".1" width=".46" height="35.99"/>
  <polyline points="44.68 10.09 46.1 10.09 47.35 14.16 48.6 10.09 50.05 10.09 47.96 15.85 46.74 15.85 44.68 10.09"/>
  <path d="m50.51,10.56c0-.23.08-.41.23-.57.15-.15.35-.23.58-.23.12,0,.22.02.32.06.1.04.18.1.26.17s.13.16.17.26c.04.1.06.2.06.31s-.02.21-.06.31c-.04.1-.1.18-.17.26-.08.07-.16.13-.26.17-.1.04-.2.06-.32.06s-.22-.02-.32-.06c-.1-.04-.18-.1-.25-.17-.07-.07-.13-.16-.17-.26-.04-.1-.06-.2-.06-.31m.18,1.32h1.26v3.97h-1.26v-3.97Z"/>
  <rect x="53.17" y="10.09" width="1.26" height="5.77"/>
  <path d="m55.5,15.85v-3.97h1.26v.58c.11-.21.28-.38.5-.5.23-.12.49-.18.81-.18.27,0,.5.04.68.13.18.09.32.19.43.33.13.15.21.33.25.53.04.2.06.44.06.73v2.36h-1.26v-2.03c0-.28-.05-.51-.15-.69-.1-.18-.28-.27-.54-.27s-.46.09-.58.27c-.13.18-.19.42-.19.73v1.99h-1.26"/>
  <path d="m60.47,10.56c0-.23.08-.41.23-.57.15-.15.35-.23.58-.23.12,0,.22.02.32.06.1.04.18.1.26.17.08.07.13.16.17.26.04.1.06.2.06.31s-.02.21-.06.31c-.04.1-.1.18-.17.26-.08.07-.16.13-.26.17-.1.04-.2.06-.32.06s-.22-.02-.32-.06c-.1-.04-.18-.1-.26-.17-.07-.07-.13-.16-.17-.26-.04-.1-.06-.2-.06-.31m.18,1.32h1.26v3.97h-1.26v-3.97Z"/>
  <path d="m62.88,13.87c0-.3.05-.57.14-.83.1-.25.23-.47.4-.66.17-.18.37-.33.6-.44.23-.11.48-.16.74-.16.3,0,.55.06.77.19s.38.29.49.48v-.57h1.26v3.97h-1.26v-.56c-.1.18-.26.34-.48.47-.22.13-.48.19-.79.19-.26,0-.51-.05-.74-.16-.23-.11-.43-.25-.6-.44-.17-.18-.3-.4-.4-.66-.1-.25-.14-.53-.14-.83m1.26,0c0,.14.02.27.07.39.05.12.11.23.19.32.08.09.18.16.3.22.12.06.24.08.39.08s.27-.03.39-.08c.12-.05.22-.13.3-.22.08-.09.15-.2.19-.32.05-.12.07-.25.07-.39s-.02-.27-.07-.39c-.05-.12-.11-.23-.19-.32-.08-.09-.18-.17-.29-.22-.12-.05-.24-.08-.39-.08s-.27.03-.39.08c-.11.05-.21.13-.3.22-.08.09-.15.2-.19.32-.05.12-.07.25-.07.39Z"/>
  <path d="m68.3,14.24v-2.36h1.26v2.03c0,.28.05.52.15.69.1.18.28.27.55.27s.45-.09.58-.27c.12-.18.19-.43.19-.73v-1.99h1.26v3.97h-1.26v-.57c-.11.21-.28.37-.5.49-.22.12-.49.18-.81.18-.27,0-.5-.04-.68-.13-.18-.09-.32-.19-.43-.33-.13-.15-.21-.33-.25-.53-.04-.2-.06-.44-.06-.73"/>
  <path d="m73.09,14.53h1.23c0,.18.06.31.18.38.12.08.27.12.45.12.15,0,.28-.03.38-.08.1-.05.15-.13.15-.25,0-.07-.02-.12-.06-.17-.04-.04-.1-.08-.19-.12-.09-.03-.2-.07-.33-.11-.13-.04-.29-.09-.48-.15-.17-.05-.33-.11-.48-.17-.15-.06-.28-.13-.39-.22-.11-.09-.2-.19-.26-.31-.06-.12-.09-.28-.09-.46,0-.21.04-.39.12-.54.08-.15.2-.28.35-.38.15-.1.33-.17.54-.22.21-.05.44-.07.69-.07.31,0,.57.03.8.1.22.07.4.16.55.29.14.12.25.26.32.43.07.16.1.34.1.53h-1.24c0-.16-.04-.29-.13-.38-.08-.09-.21-.14-.38-.14-.13,0-.24.03-.34.09-.09.06-.14.14-.14.26,0,.08.02.14.07.19.04.05.11.09.2.13.09.04.19.08.32.12.13.04.27.09.43.14.18.05.34.1.49.15.15.06.29.12.4.2.12.08.21.18.28.3.07.12.1.27.1.46,0,.24-.05.45-.14.62-.1.17-.23.31-.39.42-.16.11-.35.18-.56.23-.21.05-.44.07-.68.07-.59,0-1.04-.12-1.37-.37-.32-.25-.48-.6-.48-1.07"/>
  <path d="m45.2,23.39v-2.36h1.26v2.03c0,.28.05.52.15.69.1.18.28.27.55.27s.45-.09.58-.27c.12-.18.19-.43.19-.73v-1.99h1.26v3.97h-1.26v-.57c-.11.21-.28.37-.5.49-.22.12-.49.18-.81.18-.27,0-.5-.04-.68-.13-.18-.09-.32-.19-.43-.33-.13-.15-.21-.33-.25-.53-.04-.2-.06-.44-.06-.73"/>
  <path d="m50.24,25v-3.97h1.26v.58c.11-.21.28-.38.5-.5s.49-.18.81-.18c.27,0,.5.04.68.13.18.09.32.19.43.33.13.15.21.33.25.53.04.2.06.44.06.73v2.36h-1.26v-2.03c0-.28-.05-.51-.15-.69-.1-.18-.28-.27-.54-.27s-.46.09-.58.27c-.13.18-.19.42-.19.73v1.99h-1.26"/>
  <path d="m55.21,19.72c0-.23.08-.41.23-.57.15-.15.35-.23.58-.23.12,0,.22.02.32.06.1.04.18.1.26.17.08.07.13.16.17.26.04.1.06.2.06.31s-.02.21-.06.31c-.04.1-.1.18-.17.26-.08.07-.16.13-.26.17-.1.04-.2.06-.32.06s-.22-.02-.32-.06c-.1-.04-.18-.1-.26-.17-.07-.07-.13-.16-.17-.26-.04-.1-.06-.2-.06-.31m.18,1.32h1.26v3.97h-1.26v-3.97Z"/>
  <polyline points="57.32 21.03 58.64 21.03 59.6 23.53 60.57 21.03 61.89 21.03 60.09 25 59.09 25 57.32 21.03"/>
  <path d="m61.95,23.02c0-.29.04-.56.13-.82.09-.25.22-.47.4-.66.18-.19.4-.34.65-.45.26-.11.55-.16.89-.16s.61.05.86.15c.26.1.47.23.65.41.18.17.32.38.41.62.1.24.14.5.14.77,0,.08,0,.14,0,.2,0,.06-.02.14-.03.25h-2.85c0,.12.02.23.05.33.03.1.08.19.14.27.07.08.15.14.26.18.11.04.24.07.4.07.23,0,.4-.04.51-.12.11-.08.19-.18.23-.3h1.24c-.03.19-.1.36-.2.53-.1.16-.24.31-.4.43-.16.12-.36.22-.59.29-.23.07-.49.11-.77.11-.34,0-.65-.05-.92-.16-.27-.11-.49-.26-.67-.45-.18-.19-.32-.41-.41-.67-.09-.25-.14-.53-.14-.82m1.26-.42h1.65c0-.23-.08-.41-.23-.54-.15-.13-.35-.2-.6-.2s-.43.06-.59.19c-.16.13-.24.31-.24.55Z"/>
  <path d="m66.95,25v-3.97h1.26v.64c.09-.19.25-.35.47-.5.22-.14.47-.21.76-.21.14,0,.26.02.36.07v1.15c-.09-.02-.16-.04-.22-.05-.06,0-.13-.01-.21-.01-.36,0-.64.1-.85.3-.21.2-.31.55-.31,1.03v1.55h-1.26"/>
  <path d="m70.04,23.68h1.23c0,.18.06.31.18.38.12.08.27.12.45.12.15,0,.28-.03.38-.08.1-.05.15-.13.15-.25,0-.07-.02-.12-.06-.17-.04-.04-.11-.08-.19-.12-.09-.03-.2-.07-.33-.11-.13-.04-.29-.09-.48-.15-.17-.05-.33-.11-.48-.17-.15-.06-.28-.13-.39-.21-.11-.09-.2-.19-.26-.31-.06-.12-.09-.28-.09-.46,0-.21.04-.39.12-.54.08-.15.2-.28.35-.38.15-.1.33-.17.54-.22.21-.05.44-.07.69-.07.31,0,.57.03.8.1.22.07.4.16.55.29.14.12.25.26.32.43.07.16.1.34.1.53h-1.24c0-.16-.04-.29-.13-.38-.08-.09-.21-.14-.38-.14-.13,0-.24.03-.34.09-.09.06-.14.14-.14.26,0,.08.02.14.07.19.04.05.11.09.2.13.09.04.19.08.32.12.13.04.27.09.43.14.18.05.34.1.49.15.15.06.29.12.4.2.12.08.21.18.28.3.07.12.1.27.1.46,0,.24-.05.45-.14.62-.1.17-.23.31-.39.42-.16.11-.35.18-.56.23-.21.05-.44.07-.68.07-.59,0-1.04-.12-1.37-.37-.32-.25-.48-.6-.48-1.07"/>
  <path d="m74.47,19.72c0-.23.08-.41.23-.57.15-.15.35-.23.58-.23.12,0,.22.02.32.06.1.04.18.1.26.17.08.07.13.16.17.26.04.1.06.2.06.31s-.02.21-.06.31c-.04.1-.1.18-.17.26-.08.07-.16.13-.26.17-.1.04-.2.06-.32.06s-.22-.02-.32-.06c-.1-.04-.18-.1-.26-.17-.07-.07-.13-.16-.17-.26-.04-.1-.06-.2-.06-.31m.18,1.32h1.26v3.97h-1.26v-3.97Z"/>
  <path d="m76.74,21.97v-.94h.62v-1.18h1.26v1.18h.9v.94h-.9v1.41c0,.15.01.26.04.35.03.09.06.15.11.2.05.05.11.08.18.1.07.01.15.02.24.02.05,0,.12,0,.21,0,.08,0,.16-.01.22-.02v.98c-.09.02-.21.03-.35.04-.14.01-.31.02-.5.02-.15,0-.3-.01-.47-.03-.16-.02-.32-.08-.46-.17-.14-.09-.26-.23-.35-.42-.09-.19-.14-.45-.14-.78v-1.7h-.62"/>
  <path d="m79.95,23.02c0-.29.04-.56.13-.82.09-.25.22-.47.4-.66.18-.19.4-.34.65-.45.26-.11.55-.16.89-.16s.61.05.86.15c.26.1.47.23.65.41.18.17.32.38.41.62.1.24.14.5.14.77,0,.08,0,.14,0,.2,0,.06-.02.14-.03.25h-2.85c0,.12.02.23.05.33.03.1.08.19.14.27.07.08.15.14.26.18.11.04.24.07.4.07.23,0,.4-.04.51-.12.11-.08.19-.18.23-.3h1.24c-.03.19-.1.36-.2.53-.1.16-.24.31-.4.43-.16.12-.36.22-.59.29-.23.07-.49.11-.77.11-.34,0-.65-.05-.92-.16-.27-.11-.49-.26-.67-.45-.18-.19-.32-.41-.41-.67-.09-.25-.14-.53-.14-.82m1.26-.42h1.65c0-.23-.08-.41-.23-.54-.15-.13-.35-.2-.6-.2s-.43.06-.59.19c-.16.13-.24.31-.24.55Z"/>
  <path d="m84.43,21.97v-.94h.62v-1.18h1.26v1.18h.9v.94h-.9v1.41c0,.15.01.26.04.35.03.09.06.15.11.2.05.05.11.08.18.1.07.01.15.02.24.02.05,0,.12,0,.2,0,.08,0,.16-.01.22-.02v.98c-.09.02-.21.03-.35.04-.14.01-.31.02-.5.02-.15,0-.3-.01-.47-.03-.16-.02-.32-.08-.46-.17-.14-.09-.26-.23-.35-.42-.09-.19-.14-.45-.14-.78v-1.7h-.62"/>
  <path d="m87.67,23.02c0-.3.05-.57.14-.83.1-.25.23-.47.4-.66.17-.18.37-.33.6-.44.23-.11.48-.16.74-.16.3,0,.55.06.77.19.22.13.38.29.49.48v-.57h1.26v3.97h-1.26v-.56c-.1.18-.26.34-.48.47-.22.13-.48.19-.79.19-.26,0-.51-.05-.74-.16-.23-.11-.43-.25-.6-.44-.17-.18-.3-.4-.4-.66-.1-.25-.14-.53-.14-.83m1.26,0c0,.14.02.27.07.39.05.12.11.23.19.32.08.09.18.16.3.22.12.05.24.08.39.08s.27-.03.39-.08c.12-.06.22-.13.3-.22.08-.09.15-.2.19-.32.05-.12.07-.25.07-.39s-.02-.27-.07-.39c-.05-.12-.11-.23-.19-.32-.08-.09-.18-.17-.29-.22-.12-.05-.24-.08-.39-.08s-.27.03-.39.08c-.11.05-.21.13-.3.22-.08.09-.15.2-.19.32-.05.12-.07.25-.07.39Z"/>
  <path d="m92.88,23.68h1.23c0,.18.06.31.18.38.12.08.27.12.45.12.15,0,.28-.03.38-.08s.15-.13.15-.25c0-.07-.02-.12-.06-.17-.04-.04-.11-.08-.19-.12-.09-.03-.2-.07-.33-.11-.13-.04-.29-.09-.48-.15-.17-.05-.33-.11-.48-.17-.15-.06-.28-.13-.39-.21-.11-.09-.2-.19-.26-.31-.06-.12-.1-.28-.1-.46,0-.21.04-.39.13-.54.08-.15.2-.28.35-.38.15-.1.33-.17.54-.22.21-.05.44-.07.69-.07.31,0,.57.03.8.1.22.07.4.16.55.29.14.12.25.26.32.43.07.16.1.34.1.53h-1.24c0-.16-.04-.29-.13-.38-.09-.09-.21-.14-.38-.14-.13,0-.24.03-.34.09-.09.06-.14.14-.14.26,0,.08.02.14.07.19.04.05.11.09.2.13.09.04.19.08.32.12.13.04.27.09.43.14.18.05.34.1.49.15.15.06.29.12.4.2.12.08.21.18.28.3.07.12.1.27.1.46,0,.24-.05.45-.15.62-.1.17-.23.31-.39.42-.16.11-.35.18-.57.23-.21.05-.44.07-.68.07-.59,0-1.04-.12-1.37-.37-.32-.25-.48-.6-.48-1.07"/>
</svg>